<?xml version="1.0" encoding="UTF-8"?>
<svg id="Layer_2" data-name="Layer 2" xmlns="http://www.w3.org/2000/svg" xmlns:xlink="http://www.w3.org/1999/xlink" viewBox="0 0 200 200">
  <defs>
    <linearGradient id="Degradado_sin_nombre_257" data-name="Degradado sin nombre 257" x1="38.573648" y1="57.22354" x2="133.844904" y2="149.014712" gradientTransform="translate(3.367189 .5395) rotate(3.101326)" gradientUnits="userSpaceOnUse">
      <stop offset="0" stop-color="#210440"/>
      <stop offset=".054429" stop-color="#1b1050"/>
      <stop offset=".185461" stop-color="#112a71"/>
      <stop offset=".31063" stop-color="#0a3c89"/>
      <stop offset=".426253" stop-color="#054897"/>
      <stop offset=".523222" stop-color="#044c9d"/>
      <stop offset=".745721" stop-color="#102c73"/>
      <stop offset="1" stop-color="#210440"/>
    </linearGradient>
    <radialGradient id="Degradado_sin_nombre_593" data-name="Degradado sin nombre 593" cx="98.610453" cy="76.919063" fx="98.610453" fy="76.919063" r="83.131841" gradientTransform="translate(-1.73947 -8.572298) rotate(3.101194) scale(1.092373)" gradientUnits="userSpaceOnUse">
      <stop offset="0" stop-color="#04969d"/>
      <stop offset=".018569" stop-color="#04999d"/>
      <stop offset=".328908" stop-color="#04b19d"/>
      <stop offset=".560706" stop-color="#058699"/>
      <stop offset=".854" stop-color="#065694"/>
      <stop offset="1" stop-color="#074493"/>
    </radialGradient>
    <radialGradient id="Degradado_sin_nombre_458" data-name="Degradado sin nombre 458" cx="98.328747" cy="111.309508" fx="98.328747" fy="111.309508" r="83.131825" gradientTransform="translate(-1.73947 -8.572298) rotate(3.101194) scale(1.092373)" gradientUnits="userSpaceOnUse">
      <stop offset="0" stop-color="#04969d"/>
      <stop offset=".277518" stop-color="#04b19d"/>
      <stop offset=".391067" stop-color="#04aa9c"/>
      <stop offset=".551093" stop-color="#04989a"/>
      <stop offset=".738653" stop-color="#057997"/>
      <stop offset=".945649" stop-color="#065094"/>
      <stop offset="1" stop-color="#074493"/>
    </radialGradient>
    <radialGradient id="Degradado_sin_nombre_528" data-name="Degradado sin nombre 528" cx="81.967486" cy="121.849882" fx="81.967486" fy="121.849882" r="73.409891" gradientTransform="translate(-5.417825 -9.161629) scale(1.092411)" gradientUnits="userSpaceOnUse">
      <stop offset=".27648" stop-color="#074493"/>
      <stop offset=".310032" stop-color="#065094"/>
      <stop offset=".437815" stop-color="#057997"/>
      <stop offset=".553599" stop-color="#04989a"/>
      <stop offset=".652386" stop-color="#04aa9c"/>
      <stop offset=".722482" stop-color="#04b19d"/>
      <stop offset=".854114" stop-color="#074493"/>
      <stop offset=".887943" stop-color="#065f96"/>
      <stop offset=".933391" stop-color="#047d99"/>
      <stop offset=".972343" stop-color="#048f9c"/>
      <stop offset="1" stop-color="#04969d"/>
    </radialGradient>
    <radialGradient id="Degradado_sin_nombre_459" data-name="Degradado sin nombre 459" cx="73.481197" cy="89.131755" fx="73.481197" fy="89.131755" r="49.41365" gradientTransform="translate(-5.417825 -9.161629) scale(1.092411)" gradientUnits="userSpaceOnUse">
      <stop offset="0" stop-color="#074493"/>
      <stop offset=".054351" stop-color="#065094"/>
      <stop offset=".261347" stop-color="#057997"/>
      <stop offset=".448907" stop-color="#04989a"/>
      <stop offset=".608933" stop-color="#04aa9c"/>
      <stop offset=".722482" stop-color="#04b19d"/>
      <stop offset="1" stop-color="#04969d"/>
    </radialGradient>
    <radialGradient id="Degradado_sin_nombre_458-2" data-name="Degradado sin nombre 458" cx="146.656235" cy="145.119961" fx="146.656235" fy="145.119961" r="37.874537" gradientTransform="translate(0 -.006409)" xlink:href="#Degradado_sin_nombre_458"/>
  </defs>
  <g id="OBJECTS">
    <g>
      <path d="M105.668033.663175C51.808656-2.253221,5.628056,38.131941.947292,91.457037c3.542362-32.801966,32.187246-57.461445,65.52513-55.656203,34.475302,1.866851,60.909582,31.326727,59.042767,65.800557-1.866931,34.47383-31.328072,60.906982-65.803483,59.040239C26.373932,158.836389.559486,131.227962.580242,98.235161c-1.105298,53.518773,40.44402,98.654519,94.303397,101.570915,54.994175,2.977896,101.989822-39.187602,104.967845-94.179429C202.829516,50.63482,160.662208,3.64107,105.668033.663175Z" style="fill: #bebdbe;"/>
      <path d="M.591603,97.528182c.000878-.075701.005353-.152276.006554-.228086-.002294.076029-.00437.152057-.006554.228086Z" style="fill: #bebdbe;"/>
      <path d="M.882293,92.161176c-.006118.07581-.012235.15162-.018134.22743.006991-.075482.010706-.152057.018134-.22743Z" style="fill: #bebdbe;"/>
      <path d="M199.126014,111.604067c-.059755.486539-.11951.973079-.190298,1.459072-.081057.674644-.183744,1.336945-.28643,1.999355-.072099.508168-.155232,1.015681-.249398,1.522647-.119173.761597-.26054,1.521992-.412495,2.270808-.064125.363867-.138845.716045-.213676,1.068223-.483174,2.34487-1.04227,4.652163-1.688431,6.921442-.084662.329457-.180357.65815-.275506.975919-.109787.383639-.219028.756135-.339412,1.128085-.110334.394781-.231373.777873-.363336,1.16031-.173693.536023-.347496,1.072047-.532332,1.607524-.173803.536023-.358639,1.071501-.554508,1.606322-.369117,1.059812-.770915,2.106625-1.183846,3.153002-.412822,1.046267-.847384,2.08019-1.292323,3.102534-.190517.43498-.380487.858817-.570449,1.282655-.26612.597851-.542718,1.183905-.830569,1.769412-.239129.510353-.477712,1.009454-.72721,1.50801-.249734.498555-.49935.997001-.759562,1.483868-.260649.498009-.520862.984876-.78162,1.482776-1.58356,2.930924-3.307276,5.776316-5.169946,8.514109-.290363.429409-.592524.869522-.893483,1.287352-1.604315,2.284244-3.294276,4.50808-5.079495,6.637754-.345967.426568-.702421.841339-1.069908,1.255564-.4161.489598-.843342.97854-1.270037,1.456231-.307732.339616-.615574.679123-.92276,1.007597-.839846.911906-1.701212,1.811359-2.57241,2.6882-.482737.485884-.965473.971768-1.46984,1.445417-1.598526,1.56088-3.259974,3.05163-4.96348,4.495518-.455099.387243-.92134.77394-1.386926,1.149495-2.049692,1.670007-4.161869,3.258852-6.336314,4.766315-.381907.268722-.774301.525755-1.167351.793931-.566088.381235-1.143318.761815-1.719346,1.12022-.530475.338633-1.060841.677266-1.601803,1.004211-.29943.184173-.587717.368892-.874803.531435-.311111.194659-.632725.37763-.943297.561257-.173038.11306-.345522.214977-.528509.305207-.850224.488287-1.699792.965541-2.559957,1.430998-2.786843,1.507682-5.643499,2.866911-8.560136,4.100519-.592087.246219-1.17325.492984-1.7649.72817-.989725.391613-1.978794.772193-2.977149,1.1188-.795603.302039-1.601147.581247-2.406036.849314-1.212904.40199-2.435743.780932-3.668427,1.137261-.610767.178383-1.232677.35622-1.854041.522915-.248305.06445-.496719.129008-.756823.203944-.169542.046535-.338975.09296-.507862.128353-.180576.045879-.361254.091759-.552979.136983-.64343.165602-1.286308.319954-1.928646.463381-.213901.044022-.427795.088045-.642338.143209-1.2956.28609-2.589568.538864-3.893907.779948-.505459.083894-1.022169.167241-1.527628.251135-1.010918.168006-2.021398.32476-3.041601.458684-.7731.091759-1.557888.194004-2.330441.27462-.750268.081818-1.499881.152494-2.26009.211591-1.017909.089574-2.046305.16746-3.084526.222515-.502509.028511-1.004369.045879-1.517359.062593-1.27201.053526-2.542703.084986-3.822791.082364-.255952-.002622-.511795-.005353-.767747-.008193-1.513754-.004042-3.036139-.05298-4.568464-.124857l-.277582-.014965c-1.531124-.094053-3.049903-.209734-4.555246-.369219-.25475-.024906-.509391-.049812-.764142-.074718-1.272878-.135781-2.532756-.304224-3.791541-.494732-.50819-.072096-1.005237-.143537-1.501738-.22612-1.026211-.166804-2.040188-.355237-3.042366-.554266-.749503-.140806-1.4871-.291989-2.22415-.454424-.759226-.163527-1.528393-.349884-2.287073-.524554-.999884-.243379-1.987424-.508387-2.974309-.784427-.493442-.138075-.998136-.276696-1.491579-.414771-1.270693-.380471-2.529697-.771428-3.786953-1.195812-.20723-.077995-.415116-.144848-.623002-.21181-.623111-.21181-1.245562-.434761-1.867477-.668855-.174567-.065105-.360277-.130756-.534845-.19597-.16408-.053307-.327505-.117866-.491039-.182316-.25049-.102682-.490493-.193567-.730496-.284452-.599619-.232892-1.198594-.476817-1.786639-.720196-1.187014-.487304-2.361684-.996127-3.524119-1.52658-.868795-.403301-1.736825-.817635-2.582242-1.241909-.868139-.414334-1.712901-.849641-2.557007-1.296091-.562701-.297669-1.113823-.605825-1.675868-.914528-1.383539-.765092-2.754188-1.562846-4.089005-2.403202-.44188-.268831-.883215-.548804-1.313297-.828122-.494972-.31624-.989834-.632479-1.483604-.970785-1.375127-.920536-2.726768-1.862045-4.042796-2.846047-1.638071-1.201929-3.22884-2.456838-4.783228-3.765491-.350664-.308484-.713022-.606372-1.063686-.914746-.553197-.475179-1.10563-.961609-1.646482-1.458307-.467334-.414989-.934116-.841012-1.38911-1.277521-.498358-.461087-.985464-.921628-1.460882-1.392656-.411839-.411822-.834816-.824408-1.235627-1.235683-.443301-.446996-.886601-.893991-1.318322-1.351583-2.169852-2.277034-4.223372-4.647903-6.160431-7.112715-.384861-.499538-.770373-.987935-1.154574-1.498615-.384857-.499429-.75857-.998312-1.120596-1.507682-.373168-.510025-.735193-1.019504-1.096563-1.540016-.36213-.50937-.723504-1.029772-1.062807-1.549082-.350336-.519966-.700017-1.050964-1.038665-1.581307-1.366279-2.111104-2.651829-4.27344-3.856103-6.498259-.303577-.561803-.596566-1.112027-.889004-1.673284-.211491-.412258-.422868-.824408-.634363-1.236557-1.135234-2.265674-2.189192-4.593503-3.152481-6.949952-.216625-.523789-.422654-1.035889-.616885-1.558477-.206138-.512101-.400478-1.034688-.594818-1.557275-1.213778-3.282775-2.266644-6.65698-3.127355-10.087661-.155559-.620682-.311228-1.241363-.455208-1.872532-.153812-.653999-.295931-1.318375-.438057-1.98286-.123552-.59665-.246448-1.204441-.358311-1.811578-.121145-.641109-.242297-1.282218-.352303-1.922671-.404083-2.403967-.728857-4.83721-.962848-7.298744-.036272-.358186-.07254-.716373-.097119-1.085155-.041949-.458575-.07341-.90557-.104325-1.363599-.038886-.514285-.077889-1.028461-.093947-1.552469-.028184-.302039-.04468-.614674-.050032-.926653-.059536-1.160856-.085864-2.320073-.100393-3.489668-.016605-2.160479.022941-4.328932.141249-6.515519.118417-2.186477.313959-4.357661.563794-6.503721,4.953212-31.234422,32.830021-54.292604,65.107719-52.54482,13.952169.755589,26.591157,6.026139,36.572623,14.325381-15.911409,10.54842-26.7986,28.22605-27.910019,48.748306-1.11131,20.522366,7.80375,39.261119,22.483028,51.466001,9.970227,8.298586,22.608656,13.580388,36.560825,14.335867,32.277698,1.747784,60.155163-21.321431,65.108375-52.555853Z" style="fill: url(#Degradado_sin_nombre_257);"/>
      <path d="M199.689152,105.111378c-.118417,2.186587-.313413,4.346629-.563138,6.492688-4.953212,31.234422-32.830677,54.303637-65.108375,52.555853-13.952169-.755479-26.590598-6.037282-36.560825-14.335867,15.900266-10.549076,26.786808-28.215563,27.898221-48.73782,1.11131-20.522366-7.803204-39.272151-22.47123-51.476487-9.981466-8.299241-22.620454-13.569792-36.572623-14.325381C34.033484,33.536581,6.156674,56.594762,1.203462,87.829185,5.328626,53.176972,27.061609,24.342802,56.80895,9.912773c.068385-.029603.136879-.059425.20581-.10017.925491-.439677,1.850436-.868212,2.785868-1.285167.581163-.246765,1.162877-.504673,1.743926-.751547,1.697722-.720633,3.425693-1.384026,5.174207-2.012901.57865-.202415,1.15741-.40494,1.747094-.606699.181231-.057021.35132-.114589.532551-.171611,1.111201-.373916,2.231687-.71397,3.362661-1.042334.610876-.178492,1.232786-.35622,1.854041-.523024.24842-.06445.496829-.128899.756276-.192802.983061-.269596,1.987211-.515815,2.990148-.739749l.641682-.132176c1.2956-.28609,2.590107-.549896,3.893906-.779948.506108-.094926,1.02271-.178383,1.528284-.262277,1.010912-.167896,2.020737-.313618,3.04094-.447542.773761-.102792,1.557888-.194004,2.330987-.285653.750268-.081927,1.49999-.152603,2.260199-.211591,1.0178-.089574,2.04565-.156427,3.083877-.211482.502509-.028401,1.005018-.056912,1.518015-.073625,1.271348-.042493,2.542041-.073844,3.822784-.082474.255843.002731.511686.005462.767637.008193,1.513208.015184,3.036248.053089,4.568028.135999l.277472.015075c1.53167.08291,3.049903.209734,4.555902.357968.25475.025015.509391.049812.764033.074827,1.272332.146814,2.53221.315256,3.791541.494732.50819.072096,1.004691.15457,1.501192.237152,1.026211.166804,2.040734.344313,3.043021.543233.749394.140697,1.4871.291989,2.22404.454424.75868.174669,1.528502.349884,2.286526.535696.999884.24327,1.98797.497135,2.974964.773285.493442.137966.998027.276696,1.490923.425804,1.271348.369438,2.529697.771537,3.78696,1.195812l.623651.200667c.972792.330987,1.944492.684148,2.892705,1.058283.251036.09154.491148.182534.731042.273419.599632.232783,1.198703.476817,1.786748.720087,1.088916.448525,2.166143.907646,3.23037,1.399428.174021.076247.3369.151839.510921.228086.564558.264243,1.117974.528049,1.682532.792401,1.659264.813375,3.305418,1.659411,4.915414,2.559301.551012.308156,1.101478.627345,1.6526.935392.884962.515596,1.758127,1.041461,2.630745,1.578576.064234.047955.129014.084877.193794.121689,28.015109,17.557906,46.507121,48.570142,46.866088,83.465188.016605,2.160479-.023596,4.340184-.141904,6.526661Z" style="fill: url(#Degradado_sin_nombre_593);"/>
      <path d="M199.00989,111.959413c-.059646.486539-.119401.973188-.190298,1.459072-.081057.674644-.183634,1.337054-.286321,1.999355-.072099.508168-.155232,1.015681-.249507,1.522647-.119182.761706-.26054,1.522101-.412385,2.270808-.064234.363867-.138955.716045-.213676,1.068223-.483283,2.34487-1.042379,4.652272-1.688431,6.921551-.084662.329348-.180349.65815-.275506.975809-.109787.383639-.219028.756244-.339412,1.128194-.110443.394671-.231373.777764-.363336,1.160201-.173803.536023-.347496,1.072156-.532441,1.607633-.173693.536023-.358521,1.071391-.554508,1.606322-.369126,1.059812-.770915,2.106625-1.183728,3.152892-.412932,1.046376-.847392,2.080299-1.292323,3.102534-.190634.43498-.380605.858817-.570466,1.282655-.266221.597851-.542819,1.184014-.83056,1.769522-.239129.510244-.38005,1.080349-.629666,1.578904s-.433141.940526-.693244,1.427393c-.260759.4979-.534517,1.072156-.795275,1.570056-1.583669,2.930924-3.112936,5.78571-4.975606,8.523394-.290472.429518-.616666.846364-.917626,1.264303-1.604315,2.284135-3.312847,4.578865-5.097956,6.70854-.345967.426568-.692807.829651-1.060404,1.243876-.4161.489489-.837552.949593-1.264248,1.427393-.307732.339507-.590003.670603-.897197.999077-.839838.911906-1.718582,1.8556-2.58978,2.732441-.482737.485884-.943516.953744-1.447882,1.427284-1.598526,1.560989-2.877849,2.607038-4.581355,4.051035-.455099.387243-1.47836,1.160528-1.943946,1.536083-2.049692,1.670116-4.334361,3.180857-6.508806,4.68832-.382016.268722-.77441.525864-1.16746.793931-.566088.381235-1.143318.761815-1.719346,1.12022-.530366.338633-1.060731.677266-1.601694,1.004211-.29943.184173-.587717.368892-.874803.531435-.311119.194659-.632725.37774-.943297.561257-.173038.11306-.345639.214977-.528618.305316-.850107.488287-1.699792.965432-2.559848,1.430889-2.786851,1.507682-5.643507,2.867021-8.560136,4.100519-.592196.246219-1.17325.493093-1.7649.72817-.989725.391613-1.978794.772193-2.977258,1.118909-.795603.302039-1.601038.581247-2.406036.849314-1.212904.401881-2.43564.780932-3.668317,1.137152-.610876.178383-1.232786.35622-1.854041.523024-.248414.06445-.496829.128899-.756823.203944-.169542.046426-.339078.092851-.507971.128244-.180576.045989-.361151.091759-.552869.137092-.64354.165493-1.286424.319954-1.928762.463272-.213894.044022-.427788.088154-.642229.143318-1.295709.28609-2.589561.538864-3.8939.779839-.505568.083894-1.022169.16735-1.527737.251244-1.010918.167896-2.021289.324651-3.041601.458684-.7731.091649-1.557888.193895-2.330332.27462-.750268.081818-1.49999.152494-2.260199.211482-1.0178.089683-2.046196.167569-3.084424.222624-.502509.028401-1.004472.04577-1.517469.062483-1.271895.053635-2.542697.084986-3.822784.082474-.255843-.002731-.511686-.005462-.767637-.008193-1.513754-.004042-3.036248-.053089-4.568574-.124857l-.277472-.015075c-1.531124-.094053-3.050013-.209734-4.555356-.369219-.25475-.024797-.509391-.049703-.764033-.074718-1.272878-.135672-2.532865-.304114-3.791541-.494732-.50819-.071987-1.005237-.143537-1.501738-.22601-1.026321-.166913-2.040182-.355346-3.042475-.554375-.749394-.140806-1.48699-.291989-2.22404-.454315-.759335-.163636-1.528502-.349994-2.287182-.524663-.999775-.243379-1.987315-.508277-2.974199-.784427-.493551-.137966-.998136-.276696-1.491579-.414662-1.270693-.380471-2.529806-.771537-3.786953-1.195812-.20734-.077995-.415226-.144957-.623111-.21181-.623002-.211919-1.245567-.43487-1.867368-.668855-.174567-.065105-.360277-.130865-.534845-.19597-.164189-.053417-.327609-.117866-.491148-.182425-.250381-.102573-.490383-.193567-.730386-.284452-.599625-.232783-1.198703-.476817-1.786748-.720087-1.186905-.487304-2.361684-.996127-3.524119-1.526689-.868686-.403301-1.736825-.817526-2.582133-1.2418-.868139-.414443-1.712901-.849751-2.557007-1.2962-.56281-.29756-1.113823-.605716-1.675978-.914419-1.383534-.765092-2.754078-1.562955-4.089005-2.403312-.441766-.268722-.883101-.548695-1.313188-.828012-.494972-.31624-.989943-.632479-1.483713-.970894-1.375127-.920427-2.726659-1.861936-4.042687-2.846047-1.638071-1.20182-3.22884-2.456838-4.783342-3.765491-.350664-.308375-.712908-.606262-1.063676-.914746-.553092-.475179-1.105634-.961499-1.646487-1.458307-.467329-.414989-.934012-.840902-1.38911-1.277411-.498249-.461196-.985355-.921628-1.460768-1.392656-.411953-.411931-.834934-.824517-1.235631-1.235792-.443301-.446996-.88671-.893991-1.318322-1.351474-2.169966-2.277144-4.223367-4.648012-6.160436-7.112824-.384966-.499429-.770369-.987935-1.15457-1.498506-.384857-.499538-.75857-.998421-1.120596-1.507791-.373168-.510025-.735193-1.019395-1.096672-1.539907-.362025-.50937-.723504-1.029881-1.062698-1.549192-.350336-.519856-.700126-1.050855-1.038774-1.581307-1.366279-2.111104-2.651719-4.27344-3.855994-6.49815-.303581-.561912-.596566-1.112027-.889004-1.673394-.211491-.412258-.422982-.824408-.634363-1.236557-1.13523-2.265564-2.189192-4.593503-3.152481-6.949952-.216625-.52368-.422654-1.03578-.616994-1.558477-.206025-.512101-.400369-1.034579-.594818-1.557166-1.213669-3.282775-2.266644-6.657089-3.127246-10.087661-.155669-.620791-.311228-1.241363-.455208-1.872532-.153812-.653999-.296043-1.318484-.438057-1.98297-.123552-.59665-.246554-1.204441-.358311-1.811578-.121148-.641-.242297-1.282109-.352303-1.922562-.404192-2.404076-.728853-4.83721-.962851-7.298854-.036377-.358186-.072645-.716373-.097115-1.085046-.041949-.458684-.07341-.90568-.104325-1.363708-.03889-.514176-.077889-1.028352-.094057-1.55236-.028075-.302148-.04457-.614674-.050032-.926653-.059533-1.160965-.085864-2.320073-.100393-3.489668-.016495-2.160479.022941-4.328932.141362-6.515519.118414-2.186477.313955-4.357771.563684-6.503831,4.953208-31.234422,32.830018-54.292604,65.107721-52.544711,13.952279.755479,26.591254,6.026139,36.572617,14.325381-15.911409,10.54842-26.520799,28.293886-27.632109,48.816251-1.111419,20.522257,7.996451,38.908285,22.67562,51.113058,9.97033,8.298695,22.138161,13.865277,36.090439,14.620756,32.277691,1.747893,60.155156-21.321431,65.108259-52.555853Z" style="fill: url(#Degradado_sin_nombre_458);"/>
      <path d="M166.090947,174.994102c-2.059195,1.680057-4.181314,3.278405-6.365918,4.794717-.383764.27047-.778015.529032-1.172922.798737-.5686.383529-1.148671.766512-1.727313,1.126993-.532886.340709-1.065764.681308-1.609239,1.010219-.30085.185265-.590558.371186-.878954.534603-.312539.195861-.635674.379924-.947667.564643-.173912.113715-.347161.216288-.531021.307064-.854156.491236-1.707767.971331-2.571973,1.439518-2.79985,1.516748-5.669834,2.88428-8.600118,4.125206-.594927.247748-1.178712.496152-1.773093.732649-.994313.393907-1.98797.77689-2.991132,1.125573-.799317.303896-1.608569.584852-2.417179.854557-1.218585.404393-2.447111.785629-3.685468,1.144143-.613717.179476-1.238467.358405-1.86278.526192-.249398.064886-.499014.129773-.760318.205146-.1703.046753-.340505.093506-.510265.129008-.18134.046316-.362899.092414-.555491.137966-.646489.166586-1.292432.32192-1.93761.466112-.214987.044459-.429864.0887-.645397.144301-1.301608.287729-2.601578.542141-3.912034.784646-.507862.08444-1.026867.168443-1.534729.252773-1.015615.168989-2.030684.326836-3.055693.461633-.776705.092305-1.565207.195206-2.341256.276368-.753764.082364-1.506866.153477-2.270686.213011-1.022606.09012-2.055693.168552-3.098734.223935-.504906.028729-1.00917.046316-1.524569.063139-1.277794.053963-2.554386.085641-3.840475.083129-.257051-.002731-.514095-.005462-.771242-.008193-1.520752-.003933-3.050237-.053198-4.589773-.125294l-.278674-.015075c-1.538224-.094599-3.064214-.210826-4.576439-.371076-.255952-.025015-.511795-.05003-.767637-.075155-1.278777-.136327-2.544657-.305644-3.809129-.497354-.510484-.072424-1.009928-.144301-1.508729-.227321-1.031018-.167787-2.049582-.357203-3.056458-.557324-.75289-.14157-1.493982-.293628-2.234418-.456936-.762722-.164401-1.535493-.35196-2.297669-.527503-1.004472-.24469-1.996491-.511227-2.987964-.788906-.495846-.13873-1.002724-.278225-1.49857-.416956-1.276483-.382655-2.541386-.775907-3.804323-1.202584-.208323-.078541-.417083-.145721-.626061-.21312-.625842-.213011-1.251248-.437274-1.875998-.672569-.175332-.065542-.361916-.13163-.537248-.197172-.164954-.053635-.329144-.118522-.493442-.183408-.251582-.103119-.492678-.194659-.733773-.28609-.602465-.234203-1.204274-.479439-1.794941-.724238-1.192367-.490035-2.372608-1.001808-3.540396-1.535428-.872727-.405595-1.744799-.822223-2.59404-1.248901-.872181-.416846-1.720766-.854666-2.568805-1.303628-.565323-.299308-1.118957-.609212-1.683624-.919771-1.389875-.769462-2.76675-1.571913-4.107795-2.417075-.443847-.27036-.887142-.551972-1.319305-.832819-.497266-.318206-.994422-.636193-1.490481-.976574-1.381468-.925779-2.739226-1.872641-4.061263-2.862433-1.645609-1.208811-3.243692-2.471148-4.80519-3.787338-.352303-.310232-.716294-.609867-1.068597-.920099-.55571-.47791-1.110655-.967071-1.65402-1.466827-.469518-.417393-.938381-.845818-1.395446-1.284839-.500652-.463818-.989943-.926981-1.467545-1.400739-.413805-.414225-.838644-.829214-1.241198-1.242893-.445376-.449617-.890752-.899235-1.32444-1.359448-2.179798-2.290252-4.242598-4.674993-6.18862-7.154224-.386604-.502379-.773755-.993615-1.159704-1.507245-.386604-.502379-.762066-1.004211-1.12573-1.516639-.374806-.512974-.73847-1.025294-1.101588-1.548864-.363773-.512319-.726777-1.03578-1.067609-1.558149-.35187-.523024-.703299-1.057191-1.043476-1.590483-1.372396-2.123448-2.663736-4.298565-3.873363-6.536274-.305001-.56519-.599297-1.118582-.893156-1.683116-.212365-.414662-.42473-.829214-.637094-1.243876-1.140478-2.278782-2.199133-4.620375-3.166682-6.990588-.217608-.526848-.42462-1.041898-.619725-1.567543-.207012-.515159-.402222-1.040805-.59744-1.566342-1.219131-3.302109-2.276695-6.696087-3.141229-10.146867-.156215-.624396-.312539-1.248682-.457065-1.883565-.154463-.657822-.297245-1.326131-.440023-1.994549-.124094-.600145-.247537-1.211433-.35984-1.822283-.121695-.644714-.24328-1.289646-.353832-1.933813-.405831-2.418168-.731806-4.86572-.966784-7.341674-.036487-.360371-.072864-.720633-.097549-1.091491-.042062-.461306-.073632-.910923-.104657-1.371792-.039108-.517125-.078107-1.03436-.094275-1.561426-.02829-.303896-.044898-.618278-.050251-.932115-.059864-1.167738-.086082-2.333728-.100611-3.510205-.016605-2.17315.023268-4.354384.142341-6.553861.119182-2.199367.315707-4.383441.566856-6.542173,2.213112-13.967522,12.171207-28.132653,21.852157-37.380066C13.307708,56.640205,3.130476,72.48714.712751,87.745619c-.251145,2.158731-.44767,4.342805-.566743,6.542173-.119182,2.199476-.158946,4.38071-.14245,6.553861.014529,1.176477.040856,2.342467.100615,3.510205.005462.313836.021954.628219.050251.932115.016164.527066.055272,1.044301.094271,1.561426.031134.460869.062595.910486.104762,1.371792.024579.370858.061066.73112.097443,1.091491.234978,2.475954.560953,4.923506.966784,7.341674.110552.644167.23225,1.2891.353941,1.933813.112191.61085.235633,1.222138.359731,1.822283.142778.668418.285556,1.336727.440023,1.994549.144635.634882.30085,1.259169.457178,1.883565.864421,3.45078,1.921985,6.844758,3.141225,10.146867.195214.525537.390319,1.051183.597331,1.566342.195218.525646.402226,1.040696.619725,1.567543.967658,2.370213,2.026314,4.711806,3.166682,6.990588.212365.414662.42473.829214.637204,1.243876.293749.564534.588154,1.117926.893046,1.683116,1.209627,2.237709,2.500967,4.412826,3.873476,6.536274.340173.533292.691496,1.067459,1.043467,1.590483.340723.522369.703841,1.04583,1.067504,1.558149.363118.52357.726781,1.035889,1.101588,1.548864.363664.512428.739126,1.014261,1.12573,1.516639.385949.51363.773104,1.004866,1.159817,1.507245,1.945908,2.479231,4.008709,4.863973,6.188511,7.154224.433687.460213.879059.909831,1.324435,1.359448.402554.413679.827502.828668,1.241198,1.242893.477712.473759.966893.936921,1.46755,1.400739.45706.439021.925923.867447,1.395442,1.284839.543365.499757,1.09842.988918,1.654129,1.466827.352198.310232.716185.609867,1.068488.920099,1.561602,1.31619,3.159586,2.578527,4.80519,3.787338,1.322036.989792,2.679794,1.936653,4.061258,2.862433.496064.340381.99322.658368,1.490486.976574.432158.280847.875458.562459,1.319305.832819,1.341044.845163,2.71792,1.647614,4.107795,2.417075.564777.310559,1.118302.620463,1.683734.919771.847935.448962,1.696515.886782,2.568696,1.303628.849241.426678,1.721427.843306,2.594149,1.248901,1.167788.53362,2.34792,1.045393,3.540396,1.535428.590667.244799,1.192476.490035,1.794832.724238.241095.091431.4823.182971.733882.28609.164304.064886.328379.129773.493333.183408.175332.065542.361916.13163.537357.197172.624641.235295,1.250046.459558,1.875998.672569.208869.067399.417738.134579.625952.21312,1.262937.426678,2.52784.819929,3.804437,1.202584.495731.13873,1.002719.278225,1.498455.416956.991473.277679,1.983491.544216,2.987964.788906.762175.175543,1.534953.363102,2.297778.527503.740333.163309,1.481419.315366,2.234309.456936,1.006876.200121,2.025549.389537,3.056567.557324.498795.08302.998136.154897,1.50862.227321,1.264575.19171,2.530353.361027,3.809129.497354.255843.025124.511801.05014.767637.075155,1.512225.16025,3.038215.276478,4.576439.371076l.278783.015075c1.539426.072096,3.068917.121362,4.589657.125294.257154.002731.514307.005571.771242.008193,1.286096.002512,2.562694-.029166,3.840591-.083129.5154-.016822,1.019657-.034409,1.52446-.063139,1.043034-.055383,2.076237-.133815,3.09885-.223935.763698-.059534,1.516916-.130647,2.270571-.213011.776049-.081163,1.564552-.184063,2.341256-.276368,1.025016-.134798,2.040078-.292645,3.055693-.461633.507862-.084331,1.026983-.168333,1.534838-.252773,1.310347-.242505,2.610317-.496917,3.911925-.784646.215533-.055601.43041-.099842.645397-.144301.645287-.144192,1.29123-.299526,1.93761-.466112.192592-.045552.374151-.091649.555491-.137966.169761-.035502.339958-.082255.510272-.129008.261298-.075373.510914-.14026.760421-.205146.624204-.167787,1.248954-.346717,1.862671-.526192,1.238358-.358514,2.466883-.739749,3.685468-1.144143.808712-.269705,1.617978-.550661,2.417179-.854557,1.003161-.348683,1.996819-.731557,2.991132-1.125573.594381-.236497,1.178275-.484901,1.773202-.732649,2.930175-1.240926,5.800158-2.608458,8.600118-4.125206.864097-.468188,1.717708-.948282,2.571864-1.439518.183853-.090776.357219-.193349.531021-.307064.311993-.184719.635237-.368782.947667-.564643.288506-.163418.578213-.349338.878962-.534603.543467-.328911,1.076345-.66951,1.609333-1.010219.57865-.36048,1.158612-.743463,1.727321-1.126993.394907-.269705.789158-.528268,1.172821-.798737,2.184597-1.516312,4.306715-3.11466,6.36602-4.794607.467771-.377958.936197-.76684,1.39348-1.156377,1.201653-1.019832,2.371953-2.074401,3.524665-3.148741-.25617.221313-.506005.449836-.764243.668964-.457291.389537-.925717.778419-1.393597,1.156268Z" style="fill: url(#Degradado_sin_nombre_528);"/>
      <path d="M127.551983,98.952953c1.111419-20.522257-7.803095-39.272151-22.47123-51.476378-9.981363-8.299241-22.620344-13.569901-36.572623-14.325381-17.928328-.970894-34.406699,6.049407-46.445509,17.534857,11.753036-9.96335,27.095954-15.968843,43.698095-15.069827,13.952169.755479,26.591151,6.026249,36.572623,14.32549,14.668136,12.204227,23.58254,30.954122,22.47123,51.476378-.898727,16.595096-8.193522,31.318644-19.358404,41.925505,12.708568-10.727787,21.13532-26.469309,22.105819-44.390645Z" style="fill: url(#Degradado_sin_nombre_459);"/>
      <path d="M97.593689,149.649811c3.773987,3.161438,7.982498,5.76532,12.385406,7.913391,4.398071,2.16391,9.027344,3.843201,13.785736,4.960144,4.765778,1.062164,9.635925,1.706055,14.517975,1.61972,4.877472-.053467,9.743866-.702515,14.470703-1.904572,1.184021-.289886,2.348724-.656677,3.524567-.980835,1.16803-.351074,2.311676-.781525,3.469177-1.168091,2.286896-.891693,4.560516-1.721466,6.663391-2.94989,4.255585-2.3815,8.204498-5.310883,11.874176-8.537964,3.657806-3.24472,7.001434-6.859863,9.902344-10.811707,1.4664-1.963745,2.835419-4.003296,4.094147-6.11264,1.239532-2.120178,2.382233-4.298431,3.437469-6.523712-1.847107,4.566437-4.232178,8.921051-7.048462,12.984589-2.834167,4.052521-6.130219,7.782867-9.760681,11.153748-3.628265,3.377228-7.656128,6.321503-11.96347,8.800903-1.08548.599426-2.180298,1.217285-3.352539,1.676788-1.150055.46283-2.282745.970917-3.447906,1.39621-1.173553.402069-2.333252.847443-3.519104,1.213409-1.195465.333466-2.373688.733276-3.584259,1.011505-9.637299,2.383209-19.876709,2.498779-29.493073.013245-9.586365-2.487518-18.651123-7.131378-25.955597-13.754242Z" style="fill: url(#Degradado_sin_nombre_458-2);"/>
    </g>
  </g>
</svg>