<?xml version="1.0" encoding="UTF-8"?>
<svg id="Layer_2" data-name="Layer 2" xmlns="http://www.w3.org/2000/svg" xmlns:xlink="http://www.w3.org/1999/xlink" viewBox="0 0 233.792718 233.36523">
  <defs>
    <linearGradient id="linear-gradient" x1="154.314027" y1="28.04509" x2="77.454236" y2="210.238943" gradientTransform="translate(4.277134 -1.217254) rotate(3.101326)" gradientUnits="userSpaceOnUse">
      <stop offset="0" stop-color="#001030"/>
      <stop offset=".174738" stop-color="#012252"/>
      <stop offset=".569056" stop-color="#044c9d"/>
      <stop offset=".637662" stop-color="#034896"/>
      <stop offset=".73018" stop-color="#033f85"/>
      <stop offset=".836344" stop-color="#022f69"/>
      <stop offset=".9518" stop-color="#001a42"/>
      <stop offset="1" stop-color="#001030"/>
    </linearGradient>
    <linearGradient id="Degradado_sin_nombre_257" data-name="Degradado sin nombre 257" x1="35.483043" y1="77.678635" x2="122.696667" y2="161.706505" gradientTransform="translate(4.277134 -1.217254) rotate(3.101326)" gradientUnits="userSpaceOnUse">
      <stop offset="0" stop-color="#210440"/>
      <stop offset=".054429" stop-color="#1b1050"/>
      <stop offset=".185461" stop-color="#112a71"/>
      <stop offset=".31063" stop-color="#0a3c89"/>
      <stop offset=".426253" stop-color="#054897"/>
      <stop offset=".523222" stop-color="#044c9d"/>
      <stop offset=".745721" stop-color="#102c73"/>
      <stop offset="1" stop-color="#210440"/>
    </linearGradient>
    <radialGradient id="Degradado_sin_nombre_593" data-name="Degradado sin nombre 593" cx="93.664935" cy="94.134487" fx="93.664935" fy="94.134487" r="83.131841" gradientTransform="translate(4.277134 -1.217254) rotate(3.101326)" gradientUnits="userSpaceOnUse">
      <stop offset="0" stop-color="#04969d"/>
      <stop offset=".018569" stop-color="#04999d"/>
      <stop offset=".328908" stop-color="#04b19d"/>
      <stop offset=".560706" stop-color="#058699"/>
      <stop offset=".854" stop-color="#065694"/>
      <stop offset="1" stop-color="#074493"/>
    </radialGradient>
    <radialGradient id="Degradado_sin_nombre_458" data-name="Degradado sin nombre 458" cx="93.383229" cy="128.524932" fx="93.383229" fy="128.524932" r="83.131825" gradientTransform="translate(4.277134 -1.217254) rotate(3.101326)" gradientUnits="userSpaceOnUse">
      <stop offset="0" stop-color="#04969d"/>
      <stop offset=".277518" stop-color="#04b19d"/>
      <stop offset=".391067" stop-color="#04aa9c"/>
      <stop offset=".551093" stop-color="#04989a"/>
      <stop offset=".738653" stop-color="#057997"/>
      <stop offset=".945649" stop-color="#065094"/>
      <stop offset="1" stop-color="#074493"/>
    </radialGradient>
    <radialGradient id="Degradado_sin_nombre_528" data-name="Degradado sin nombre 528" cx="77.007976" cy="137.015178" fx="77.007976" fy="137.015178" r="73.409891" gradientUnits="userSpaceOnUse">
      <stop offset=".27648" stop-color="#074493"/>
      <stop offset=".310032" stop-color="#065094"/>
      <stop offset=".437815" stop-color="#057997"/>
      <stop offset=".553599" stop-color="#04989a"/>
      <stop offset=".652386" stop-color="#04aa9c"/>
      <stop offset=".722482" stop-color="#04b19d"/>
      <stop offset=".854114" stop-color="#074493"/>
      <stop offset=".887943" stop-color="#065f96"/>
      <stop offset=".933391" stop-color="#047d99"/>
      <stop offset=".972343" stop-color="#048f9c"/>
      <stop offset="1" stop-color="#04969d"/>
    </radialGradient>
    <radialGradient id="Degradado_sin_nombre_459" data-name="Degradado sin nombre 459" cx="68.521688" cy="104.29705" fx="68.521688" fy="104.29705" r="49.41365" gradientUnits="userSpaceOnUse">
      <stop offset="0" stop-color="#074493"/>
      <stop offset=".054351" stop-color="#065094"/>
      <stop offset=".261347" stop-color="#057997"/>
      <stop offset=".448907" stop-color="#04989a"/>
      <stop offset=".608933" stop-color="#04aa9c"/>
      <stop offset=".722482" stop-color="#04b19d"/>
      <stop offset="1" stop-color="#04969d"/>
    </radialGradient>
    <linearGradient id="linear-gradient-2" x1="17.511756" y1="96.787642" x2="184.246909" y2="96.787642" gradientUnits="userSpaceOnUse">
      <stop offset="0" stop-color="#001030"/>
      <stop offset=".01315" stop-color="#013"/>
      <stop offset=".192153" stop-color="#012a60"/>
      <stop offset=".351661" stop-color="#023c81"/>
      <stop offset=".484387" stop-color="#034895"/>
      <stop offset=".573964" stop-color="#044c9d"/>
      <stop offset=".643237" stop-color="#034692"/>
      <stop offset=".761242" stop-color="#023777"/>
      <stop offset=".91269" stop-color="#011f4c"/>
      <stop offset="1" stop-color="#001030"/>
    </linearGradient>
    <radialGradient id="Degradado_sin_nombre_458-2" data-name="Degradado sin nombre 458" cx="134.249998" cy="156.405291" fx="134.249998" fy="156.405291" r="34.710637" gradientTransform="matrix(1,0,0,1,0,0)" xlink:href="#Degradado_sin_nombre_458"/>
  </defs>
  <g id="OBJECTS">
    <g>
      <g>
        <path d="M123.419253.173764C60.73636-3.220636,6.942956,43.514564.982257,105.416964c4.1-29.0969,29.854499-50.7162,59.739998-49.0979,31.558899,1.709,55.756999,28.6779,54.048105,60.2368-1.709,31.5589-28.677906,55.7571-60.236905,54.0481C24.647956,168.985564,1.378757,144.711564.444857,115.341964c-.7589,62.1841,47.673199,114.4551,110.355997,117.8495,64.346098,3.4844,119.333597-45.8537,122.818097-110.1998C237.10336,58.645664,187.76536,3.658164,123.419253.173764Z" style="fill: url(#linear-gradient);"/>
        <g>
          <path d="M96.729154,24.159364C47.425955,21.489564,5.151956,58.459964.867157,107.276164c3.2427-30.0284,29.464399-52.6028,59.982098-50.9502,31.558899,1.709,55.756999,28.6779,54.048105,60.2368-1.709,31.5589-28.677906,55.757-60.236905,54.0481C24.142856,168.958264.512157,143.684264.531157,113.481164c-1.011797,48.9935,37.022699,90.3128,86.325898,92.9826,50.341999,2.7261,93.362098-35.8741,96.088198-86.2161,2.726108-50.342-35.874099-93.3622-86.216098-96.0883Z" style="fill: #bebdbe;"/>
          <path d="M.541557,112.833964c.000803-.0693.0049-.1394.006-.2088-.0021.0696-.004.1392-.006.2088Z" style="fill: #bebdbe;"/>
          <path d="M.807657,107.920764c-.0056.0694-.0112.1388-.0166.2082.0064-.0691.0098-.1392.0166-.2082Z" style="fill: #bebdbe;"/>
        </g>
        <g>
          <path d="M182.281152,125.719664c-.0547.4454-.1094.8908-.1742,1.3357-.0742.6176-.1682,1.2239-.2622,1.8303-.066.4652-.1421.9298-.2283,1.3939-.109092.6972-.2385,1.3933-.3776,2.0788-.0587.3331-.1271.6555-.1956.9779-.4423,2.1466-.9541,4.2588-1.5456,6.3362-.0775.3016-.1651.6025-.2522.8934-.1005.3512-.2005.6922-.3107,1.0327-.101.3614-.2118.7121-.3326,1.0622-.159.4907-.3181.9814-.4873,1.4716-.1591.4907-.3283.9809-.5076,1.4705-.337892.9702-.7057,1.9285-1.0837,2.8864-.3779.9578-.7757,1.9043-1.183,2.8402-.1744.3982-.3483.7862-.522192,1.1742-.243608.5473-.496808,1.0838-.760308,1.6198-.2189.4672-.4373.9241-.665692,1.3805-.228608.4564-.457108.9127-.695308,1.3584-.2386.4559-.4768.9016-.7155,1.3574-1.4496,2.6831-3.0275,5.2879-4.7326,7.7942-.2658.3931-.5424.796-.8179,1.1785-1.4686,2.0911-3.0156,4.1269-4.6498,6.0765-.3167.3905-.643.7702-.9794,1.1494-.3809.4482-.772.8958-1.1626,1.3331-.2817.3109-.5635.6217-.8447.9224-.7688.8348-1.5573,1.6582-2.3548,2.4609-.4419.4448-.8838.8896-1.3455,1.3232-1.4633,1.4289-2.9842,2.7936-4.5436,4.1154-.4166.3545-.8434.7085-1.2696,1.0523-1.8763,1.5288-3.8098,2.9833-5.8003,4.3633-.3496.246-.7088.4813-1.0686.7268-.5182.349-1.0466.6974-1.5739,1.0255-.4856.31-.9711.62-1.4663.9193-.2741.1686-.538.3377-.8008.4865-.284793.1782-.5792.3457-.8635.5138-.1584.1035-.316293.1968-.4838.2794-.7783.447-1.556.8839-2.3434,1.31-2.551093,1.3802-5.166093,2.6245-7.836,3.7538-.542.2254-1.074.4513-1.6156.6666-.906.3585-1.8114.7069-2.7253,1.0242-.7283.2765-1.4657.5321-2.2025.7775-1.1103.368-2.229694.7149-3.3581,1.0411-.5591.1633-1.1284.3261-1.6972.4787-.2273.059-.4547.1181-.6928.1867-.1552.0426-.3103.0851-.4649.1175-.1653.042-.330694.084-.5062.1254-.589.1516-1.177494.2929-1.765494.4242-.195806.0403-.391606.0806-.588.1311-1.186.2619-2.370506.4933-3.564506.714-.4627.0768-.9357.1531-1.3984.2299-.9254.1538-1.8504.2973-2.7843.4199-.7077.084-1.4261.1776-2.1333.2514-.6868.0749-1.373.1396-2.0689.1937-.9318.082-1.8732.1533-2.823594.2037-.46.0261-.919406.042-1.389.0573-1.164406.049-2.327606.0778-3.499406.0754-.2343-.0024-.4685-.0049-.7028-.0075-1.3857-.0037-2.7793-.0485-4.182-.1143l-.2541-.0137c-1.4016-.0861-2.7919-.192-4.1699-.338-.2332-.0228-.4663-.0456-.6995-.0684-1.1652-.1243-2.3185-.2785-3.4708-.4529-.4652-.066-.9202-.1314-1.3747-.207-.9394-.1527-1.8676-.3252-2.785-.5074-.6861-.1289-1.3613-.2673-2.036-.416-.695-.1497-1.3991-.3203-2.0936-.4802-.9153-.2228-1.8193-.4654-2.7227-.7181-.4517-.1264-.9137-.2533-1.3654-.3797-1.1632-.3483-2.3157-.7062-3.4666-1.0947-.1897-.0714-.38-.1326-.5703-.1939-.5704-.1939-1.140195-.398-1.7095-.6123-.1598-.0596-.3298-.1197-.4896-.1794-.1502-.0488-.2998-.1079-.4495-.1669-.2293-.094-.449-.1772-.6687-.2604-.548895-.2132-1.0972-.4365-1.6355-.6593-1.0866-.4461-2.1619-.9119-3.226-1.3975-.7953-.3692-1.5899-.7485-2.3638-1.1369-.7947-.3793-1.568-.7778-2.3407-1.1865-.5151-.2725-1.0196-.5546-1.5341-.8372-1.2665-.7004-2.5212-1.4307-3.7431-2.2-.4045-.2461-.8085-.5024-1.2022-.7581-.4531-.2895-.9061-.579-1.3581-.8887-1.2588-.8427-2.4961-1.7046-3.7008-2.6054-1.4995-1.1003-2.9557-2.2491-4.378596-3.4471-.321-.2824-.652704-.5551-.973704-.8374-.5064-.435-1.0121-.8803-1.5072-1.335-.4278-.3799-.855096-.7699-1.2716-1.1695-.4562-.4221-.9021-.8437-1.3373-1.2749-.377-.377-.764196-.7547-1.1311-1.1312-.4058-.4092-.8116-.8184-1.2068-1.2373-1.986296-2.0845-3.8661-4.2549-5.639296-6.5113-.352304-.4573-.705204-.9044-1.056904-1.3719-.3523-.4572-.6944-.9139-1.0258-1.3802-.3416-.4669-.673-.9333-1.0038-1.4098-.331496-.4663-.6623-.9427-.9729-1.4181-.3207-.476-.6408-.9621-.9508-1.4476-1.2507-1.9326-2.4275-3.9121-3.5299-5.9488-.277896-.5143-.5461-1.018-.8138-1.5318-.1936-.3774-.387096-.7547-.5807-1.132-1.0392-2.0741-2.004-4.2051-2.8858-6.3623-.1983-.4795-.3869-.9483-.5647-1.4267-.1887-.4688-.3666-.9472-.5445-1.4256-1.1111-3.0052-2.0749-6.0941-2.8628-9.2347-.1424-.5682-.2849-1.1364-.4167-1.7142-.1408-.5987-.270897-1.2069-.401-1.8152-.1131-.5462-.2256-1.1026-.328-1.6584-.110897-.5869-.2218-1.1738-.3225-1.7601-.3699-2.2007-.6672-4.4282-.881397-6.6816-.033203-.3279-.066403-.6558-.088903-.9934-.0384-.4198-.0672-.829-.0955-1.2483-.035597-.4708-.0713-.9415-.086-1.4212-.0258-.2765-.0409-.5627-.0458-.8483-.0545-1.0627-.0786-2.1239-.0919-3.1946-.0152-1.9778.021-3.9629.1293-5.9646.1084-2.0016.2874-3.9892.5161-5.9538,4.5342-28.5934,30.052799-49.7019,59.599998-48.1019,12.7719.6917,24.341705,5.5166,33.478799,13.1141-14.5654,9.6565-24.531599,25.8394-25.548999,44.6264-1.0173,18.7871,7.1436,35.9414,20.581099,47.1143,9.126806,7.5969,20.696099,12.4321,33.467999,13.1237,29.547199,1.6,55.066399-19.5186,59.600598-48.112Z" style="fill: url(#Degradado_sin_nombre_257);"/>
          <path d="M182.796652,119.775964c-.1084,2.0017-.2869,3.9791-.5155,5.9437-4.5342,28.5934-30.053399,49.712-59.600598,48.112-12.7719-.6916-24.341194-5.5268-33.467999-13.1237,14.5552-9.6571,24.520806-25.8298,25.538199-44.6168,1.0173-18.7871-7.1431-35.9515-20.570299-47.1239-9.137094-7.5975-20.706899-12.4224-33.478799-13.1141-29.547199-1.6-55.065799,19.5085-59.599998,48.1019,3.7762-31.7222,23.670703-58.1183,50.901599-71.3282.0626-.0271.1253-.0544.1884-.0917.8472-.4025,1.6939-.7948,2.5502-1.1765.532-.2259,1.064505-.462,1.5964-.688,1.554105-.6597,3.1359-1.267,4.7365-1.8427.5297-.1853,1.0595-.3707,1.5993-.5554.1659-.0522.3216-.1049.4875-.1571,1.0172-.3423,2.0429-.6536,3.0782-.9542.5592-.1634,1.1285-.3261,1.6972-.4788.227405-.059.4548-.118.6923-.1765.8999-.2468,1.819105-.4722,2.7372-.6772l.5874-.121c1.186-.2619,2.371-.5034,3.564505-.714.463295-.0869.936195-.1633,1.399-.2401.925395-.1537,1.849795-.2871,2.783695-.4097.708305-.0941,1.4261-.1776,2.1338-.2615.6868-.075,1.3731-.1397,2.069-.1937.9317-.082,1.8726-.1432,2.823-.1936.46-.026.92-.0521,1.3896-.0674,1.1638-.0389,2.327-.0676,3.4994-.0755.2342.0025.4684.005.7027.0075,1.3852.0139,2.7794.0486,4.1816.1245l.254.0138c1.4021.0759,2.7919.192,4.1705.3277.2332.0229.4663.0456.6994.0685,1.1647.1344,2.318.2886,3.4708.4529.4652.066.9197.1415,1.3742.2171.9394.1527,1.8681.3152,2.7856.4973.686.1288,1.3613.2673,2.0359.416.6945.1599,1.3992.3203,2.0931.4904.9153.2227,1.8198.4551,2.7233.7079.4517.1263.9136.2533,1.3648.3898,1.1638.3382,2.3157.7063,3.466606,1.0947l.570894.1837c.8905.303,1.78.6263,2.648.9688.2298.0838.4496.1671.6692.2503.548907.2131,1.0973.4365,1.6356.6592.9968.4106,1.9829.8309,2.9571,1.2811.1593.0698.3084.139.4677.2088.5168.2419,1.0234.4834,1.5402.7254,1.5189.7446,3.0258,1.5191,4.4996,2.3429.5044.2821,1.0083.5743,1.5128.8563.8101.472,1.6094.9534,2.4082,1.4451.0588.0439.1181.0777.1774.1114,25.645199,16.0733,42.572899,44.4633,42.901499,76.4078.0152,1.9778-.0216,3.9732-.1299,5.9748Z" style="fill: url(#Degradado_sin_nombre_593);"/>
        </g>
        <path d="M182.174852,126.044964c-.0546.4454-.1093.8909-.1742,1.3357-.0742.6176-.1681,1.224-.2621,1.8303-.066.4652-.1421.9298-.2284,1.3939-.1091.6973-.2385,1.3934-.3775,2.0788-.0588.3331-.1272.6555-.1956.9779-.4424,2.1466-.9542,4.2589-1.5456,6.3363-.0775.3015-.165092.6025-.2522.8933-.1005.3512-.2005.6923-.3107,1.0328-.1011.3613-.2118.712-.3326,1.0621-.1591.4907-.3181.9815-.4874,1.4717-.159.4907-.328192.9808-.5076,1.4705-.3379.9702-.7057,1.9285-1.083592,2.8863-.378.9579-.775708,1.9044-1.183,2.8402-.174508.3982-.348408.7862-.522208,1.1742-.2437.5473-.4969,1.0839-.7603,1.6199-.2189.4671-.3479.989-.5764,1.4454s-.3965.861-.6346,1.3067c-.2387.4558-.4893.9815-.728,1.4373-1.4497,2.6831-2.8496,5.2965-4.5547,7.8027-.2659.3932-.5645.7748-.84,1.1574-1.4686,2.091-3.0326,4.1917-4.6667,6.1413-.3167.3905-.6342.7595-.9707,1.1387-.3809.4481-.7667.8693-1.1573,1.3067-.2817.3108-.540093.6139-.8213.9146-.768793.8348-1.5732,1.6987-2.3707,2.5014-.4419.4448-.8637.8731-1.3254,1.3066-1.4633,1.429-2.6344,2.3866-4.1938,3.7085-.4166.3545-1.3533,1.0624-1.7795,1.4062-1.8763,1.5289-3.9677,2.9119-5.9582,4.2919-.3497.246-.7089.4814-1.0687.7268-.5182.349-1.0466.6974-1.5739,1.0255-.4855.31-.971.62-1.4662.9193-.2741.1686-.538.3377-.8008.4865-.2848.1782-.5792.3458-.8635.5138-.1584.1035-.3164.1968-.4839.2795-.778193.447-1.556.8838-2.3433,1.3099-2.5511,1.3802-5.1661,2.6246-7.836,3.7538-.5421.2254-1.074.4514-1.6156.6666-.906.3585-1.8114.7069-2.7254,1.0243-.7283.2765-1.4656.5321-2.2025.7775-1.1103.3679-2.2296.7149-3.358,1.041-.5592.1633-1.1285.3261-1.6972.4788-.2274.059-.4548.118-.6928.1867-.1552.0425-.310394.085-.465.1174-.1653.0421-.3306.084-.5061.1255-.5891.1515-1.1776.2929-1.7656.4241-.1958.0403-.3916.0807-.5879.1312-1.1861.2619-2.3705.4933-3.5645.7139-.4628.0768-.9357.1532-1.3985.23-.9254.1537-1.8503.2972-2.7843.4199-.7077.0839-1.4261.1775-2.1332.2514-.6868.0749-1.3731.1396-2.069.1936-.9317.0821-1.8731.1534-2.8235.2038-.46.026-.9195.0419-1.3891.0572-1.1643.0491-2.3276.0778-3.4994.0755-.2342-.0025-.4684-.005-.7027-.0075-1.3857-.0037-2.7794-.0486-4.1821-.1143l-.254-.0138c-1.4016-.0861-2.792-.192-4.17-.338-.2332-.0227-.4663-.0455-.6994-.0684-1.1652-.1242-2.3186-.2784-3.4708-.4529-.4652-.0659-.9202-.1314-1.3747-.2069-.9395-.1528-1.867595-.3253-2.7851-.5075-.686-.1289-1.3612-.2673-2.0359-.4159-.6951-.1498-1.3992-.3204-2.0937-.4803-.9152-.2228-1.8192-.4653-2.7226-.7181-.4518-.1263-.9137-.2533-1.3654-.3796-1.1632-.3483-2.3158-.7063-3.4666-1.0947-.1898-.0714-.3801-.1327-.5704-.1939-.5703-.194-1.1402-.3981-1.7094-.6123-.1598-.0596-.3298-.1198-.4896-.1794-.1503-.0489-.299895-.1079-.4496-.167-.2292-.0939-.4489-.1772-.6686-.2604-.5489-.2131-1.0973-.4365-1.6356-.6592-1.0865-.4461-2.1619-.9119-3.226-1.3976-.7952-.3692-1.5899-.7484-2.3637-1.1368-.7947-.3794-1.568-.7779-2.3407-1.1866-.5152-.2724-1.0196-.5545-1.5342-.8371-1.266495-.7004-2.5211-1.4308-3.7431-2.2001-.404396-.246-.808396-.5023-1.2021-.758-.4531-.2895-.9062-.579-1.3582-.8888-1.2588-.8426-2.496-1.7045-3.7007-2.6054-1.4995-1.1002-2.9557-2.2491-4.3787-3.4471-.321-.2823-.6526-.555-.973696-.8374-.506304-.435-1.012104-.8802-1.507204-1.335-.427796-.3799-.855-.7698-1.2716-1.1694-.4561-.4222-.902-.8437-1.337196-1.2749-.377104-.3771-.764304-.7548-1.131104-1.1313-.4058-.4092-.8117-.8184-1.2068-1.2372-1.9864-2.0846-3.866096-4.255-5.6393-6.5114-.3524-.4572-.7052-.9044-1.0569-1.3718-.3523-.4573-.6944-.914-1.0258-1.3803-.3416-.4669-.673-.9332-1.0039-1.4097-.3314-.4663-.6623-.9428-.9728-1.4182-.3207-.4759-.6409-.962-.9509-1.4476-1.2507-1.9326-2.4274-3.9121-3.5298-5.9487-.2779-.5144-.5461-1.018-.8138-1.5319-.1936-.3774-.3872-.7547-.5807-1.132-1.039196-2.074-2.004-4.2051-2.8858-6.3623-.1983-.4794-.3869-.9482-.5648-1.4267-.188596-.4688-.3665-.9471-.5445-1.4255-1.111-3.0052-2.0749-6.0942-2.8627-9.2347-.1425-.5683-.2849-1.1364-.4167-1.7142-.1408-.5987-.271-1.207-.401-1.8153-.1131-.5462-.225697-1.1026-.328-1.6584-.1109-.5868-.2218-1.1737-.3225-1.76-.37-2.2008-.667197-4.4282-.8814-6.6817-.0333-.3279-.0665-.6558-.0889-.9933-.0384-.4199-.0672-.8291-.0955-1.2484-.0356-.4707-.0713-.9414-.0861-1.4211-.0257-.2766-.0408-.5627-.0458-.8483-.054497-1.0628-.0786-2.1239-.0919-3.1946-.0151-1.9778.021-3.9629.129403-5.9646.108397-2.0016.287397-3.9893.516-5.9539,4.534196-28.5934,30.052796-49.7019,59.6-48.1018,12.772.6916,24.341794,5.5166,33.478794,13.1141-14.5654,9.6565-24.277299,25.9015-25.294599,44.6886-1.0174,18.787,7.32,35.6184,20.757399,46.7912,9.1269,7.597,20.265406,12.6929,33.037406,13.3845,29.547193,1.6001,55.066392-19.5186,59.600492-48.112Z" style="fill: url(#Degradado_sin_nombre_458);"/>
        <path d="M152.040653,183.749764c-1.885,1.538-3.8276,3.0012-5.8274,4.3893-.3513.2476-.7122.4843-1.0737.7312-.5205.3511-1.0515.7017-1.581193,1.0317-.487807.3119-.975607.6237-1.473107.9248-.2754.1696-.5406.3398-.8046.4894-.2861.1793-.5819.3478-.8675.5169-.1592.1041-.317793.198-.4861.2811-.7819.4497-1.5633.8892-2.3544,1.3178-2.563,1.3885-5.1902,2.6404-7.8726,3.7764-.5446.2268-1.079.4542-1.6231.6707-.9102.3606-1.8198.7112-2.7381,1.0304-.7317.2782-1.472493.5354-2.2127.7823-1.1155.3702-2.2401.7192-3.3737,1.0474-.5618.1643-1.1337.3281-1.7052.4817-.2283.0594-.4568.1188-.696.1878-.155894.0428-.3117.0856-.4671.1181-.166.0424-.3322.0846-.5085.1263-.5918.1525-1.1831.2947-1.7737.4267-.1968.0407-.3935.0812-.5908.1321-1.1915.2634-2.3815.4963-3.5811.7183-.4649.0773-.94.1542-1.4049.2314-.9297.1547-1.8589.2992-2.7972.4226-.711.0845-1.4328.1787-2.1432.253-.69.0754-1.379394.1405-2.0786.195-.9361.0825-1.881794.1543-2.8366.205-.462194.0263-.9238.0424-1.3956.0578-1.1697.0494-2.3383.0784-3.515594.0761-.235306-.0025-.470606-.005-.706-.0075-1.392106-.0036-2.792206-.0487-4.201506-.1147l-.2551-.0138c-1.4081-.0866-2.805-.193-4.1893-.3397-.2343-.0229-.4685-.0458-.7027-.0688-1.1706-.1248-2.329395-.2798-3.4869-.4553-.4673-.0663-.924495-.1321-1.3811-.2081-.9438-.1536-1.8762-.327-2.7979-.5102-.6892-.1296-1.3676-.2688-2.0454-.4183-.6982-.1505-1.4056-.3222-2.1033-.4829-.9195-.224-1.8276-.468-2.7352-.7222-.4539-.127-.9179-.2547-1.3718-.3817-1.1685-.3503-2.3264-.7103-3.4825-1.1009-.1907-.0719-.3818-.1334-.5731-.1951-.5729-.195-1.1454-.4003-1.7173-.6157-.1605-.06-.3313-.1205-.4918-.1805-.151-.0491-.3013-.1085-.4517-.1679-.2303-.0944-.451-.1782-.6717-.2619-.5515-.2144-1.1024-.4389-1.6431-.663-1.0915-.4486-2.1719-.9171-3.2409-1.4056-.7989-.3713-1.5972-.7527-2.3746-1.1433-.7984-.3816-1.5752-.7824-2.3515-1.1934-.5175-.274-1.0243-.5577-1.5412-.842-1.2723-.7044-2.5327-1.439-3.7603-2.2127-.4063-.2475-.812095-.5053-1.2077-.7624-.4552-.2913-.9103-.5824-1.364396-.894-1.264604-.8475-2.507504-1.7143-3.717704-2.6204-1.5064-1.1066-2.969296-2.2622-4.3987-3.4671-.3225-.284-.6557-.5583-.9782-.8423-.5087-.4375-1.0167-.8853-1.5141-1.3428-.4298-.3821-.859-.7743-1.2774-1.1762-.4583-.4246-.9062-.8486-1.3434-1.2823-.3788-.3792-.7677-.7591-1.1362-1.1378-.4077-.4116-.8154-.8232-1.2124-1.2445-1.9954-2.0966-3.8837-4.2797-5.6651-6.5493-.3539-.4599-.7083-.9096-1.0616-1.3798-.3539-.4599-.6976-.9193-1.0305-1.3884-.3431-.4696-.676-.9386-1.0084-1.4179-.333-.469-.665296-.9482-.977296-1.4264-.322104-.4788-.643804-.9678-.955204-1.456-1.2563-1.9439-2.4384-3.9351-3.5457-5.9836-.2792-.5174-.5486-1.024-.8176-1.5408-.1944-.3796-.3888-.7591-.5832-1.1387-1.044-2.0861-2.0131-4.2297-2.8988-6.3995-.1992-.4823-.3887-.9538-.5673-1.435-.1895-.4716-.368196-.9528-.5469-1.4339-1.116-3.0229-2.0841-6.1299-2.8755-9.2889-.143-.5716-.2861-1.1431-.4184-1.7243-.141397-.6022-.2721-1.214-.4028-1.8259-.113597-.5494-.226597-1.109-.3294-1.6682-.1114-.5902-.2227-1.1806-.3239-1.7703-.3715-2.2137-.6699-4.4543-.885-6.7209-.0334-.3299-.0667-.6597-.089297-.9992-.038503-.4223-.067403-.8339-.095803-1.2558-.0358-.4734-.0715-.9469-.0863-1.4294-.025897-.2782-.0411-.566-.046-.8533-.0548-1.069-.0788-2.1364-.0921-3.2134-.0152-1.9894.0213-3.9862.1303-5.9997.1091-2.0134.289-4.0128.518903-5.989,2.025897-12.7865,11.141596-25.7539,20.003596-34.2194C12.181956,75.403264,2.865657,89.910264.652457,103.878564c-.2299,1.9762-.4098,3.9756-.5188,5.989-.1091,2.0135-.1455,4.0103-.1304,5.9997.0133,1.077.0374,2.1444.092103,3.2134.005.2873.020097.5751.046.8533.014797.4825.050597.956.086297,1.4294.0285.4219.0573.8335.0959,1.2558.0225.3395.0559.6693.0892.9992.2151,2.2666.5135,4.5072.885,6.7209.1012.5897.212603,1.1801.324,1.7703.1027.5592.2157,1.1188.3293,1.6682.1307.6119.2614,1.2237.4028,1.8259.1324.5812.2754,1.1527.418503,1.7243.791297,3.159,1.759397,6.266,2.875496,9.2889.1787.4811.3573.9623.5468,1.4339.178704.4812.3682.9527.5673,1.435.8858,2.1698,1.8549,4.3134,2.8988,6.3995.1944.3796.3888.7591.5833,1.1387.2689.5168.5384,1.0234.8175,1.5408,1.1073,2.0485,2.2894,4.0397,3.545804,5.9836.311396.4882.633.9772.955196,1.456.3119.4782.6443.9574.9772,1.4264.3324.4793.6653.9483,1.0084,1.4179.3329.4691.6766.9285,1.0305,1.3884.3533.4702.707704.9199,1.061704,1.3798,1.781296,2.2696,3.669596,4.4527,5.665,6.5493.397.4213.804696.8329,1.212396,1.2445.3685.3787.7575.7586,1.1362,1.1378.4373.4337.8851.8577,1.343404,1.2823.418396.4019.847596.7941,1.277396,1.1762.4974.4575,1.0055.9053,1.5142,1.3428.322404.284.6556.5583.9781.8423,1.4295,1.2049,2.892304,2.3605,4.3987,3.4671,1.2102.9061,2.4531,1.7729,3.7177,2.6204.4541.3116.9092.6027,1.3644.894.3956.2571.8014.5149,1.2077.7624,1.2276.7737,2.488,1.5083,3.7603,2.2127.517.2843,1.0237.568,1.5413.842.776205.411,1.553.8118,2.3514,1.1934.7774.3906,1.575805.772,2.3747,1.1433,1.069.4885,2.1493.957,3.2409,1.4056.5407.2241,1.0916.4486,1.643.663.2207.0837.4415.1675.6718.2619.150405.0594.3006.1188.4516.1679.1605.06.3313.1205.4919.1805.5718.2154,1.1443.4207,1.7173.6157.1912.0617.3824.1232.573.1951,1.1561.3906,2.314.7506,3.482605,1.1009.453795.127.917895.2547,1.371695.3817.9076.2542,1.8157.4982,2.7352.7222.6977.1607,1.405105.3324,2.1034.4829.677705.1495,1.3561.2887,2.0453.4183.9217.1832,1.8542.3566,2.798.5102.4566.076.9137.1418,1.381.2081,1.1576.1755,2.3163.3305,3.4869.4553.2342.023.468505.0459.7027.0688,1.3843.1467,2.7812.2531,4.1893.3397l.2552.0138c1.4092.066,2.809306.1111,4.2014.1147.2354.0025.4708.0051.706.0075,1.1773.0023,2.345906-.0267,3.5157-.0761.4718-.0154.9334-.0315,1.3955-.0578.9548-.0507,1.9006-.1225,2.836706-.205.699094-.0545,1.388594-.1196,2.078494-.195.7104-.0743,1.4322-.1685,2.1432-.253.938306-.1234,1.8675-.2679,2.7972-.4226.4649-.0772.940106-.1541,1.405-.2314,1.1995-.222,2.3895-.4549,3.581-.7183.1973-.0509.394-.0914.5908-.1321.5907-.132,1.182-.2742,1.7737-.4267.1763-.0417.3425-.0839.5085-.1263.1554-.0325.3112-.0753.467106-.1181.239194-.069.467694-.1284.696094-.1878.5714-.1536,1.1433-.3174,1.7051-.4817,1.1336-.3282,2.2582-.6772,3.3737-1.0474.7403-.2469,1.481106-.5041,2.2127-.7823.9183-.3192,1.8279-.6697,2.7381-1.0304.5441-.2165,1.0786-.4439,1.6232-.6707,2.6823-1.136,5.3095-2.3879,7.8726-3.7764.791-.4286,1.5724-.8681,2.3543-1.3178.1683-.0831.327-.177.4861-.2811.2856-.1691.5815-.3376.8675-.5169.2641-.1496.5293-.3198.804607-.4894.497493-.3011.985293-.6129,1.473193-.9248.5297-.33,1.0606-.6806,1.5812-1.0317.3615-.2469.7224-.4836,1.073607-.7312,1.999793-1.3881,3.942393-2.8513,5.827493-4.3892.4282-.346.857-.702,1.2756-1.0586,1.1-.9336,2.1713-1.899,3.2265-2.8825-.2345.2026-.4632.4118-.699593.6124-.418607.3566-.847407.7126-1.275707,1.0585Z" style="fill: url(#Degradado_sin_nombre_528);"/>
        <path d="M116.761854,114.138264c1.0174-18.787-7.143-35.9515-20.570299-47.1238-9.137-7.5975-20.706799-12.4225-33.478799-13.1141-16.4117-.8888-31.496099,5.5379-42.516499,16.0522,10.7588-9.1209,24.803799-14.6186,40.001499-13.7956,12.7719.6916,24.341699,5.5167,33.478799,13.1142,13.4273,11.1723,21.587599,28.3368,20.570299,47.1238-.8227,15.1919-7.5004,28.6705-17.7208,38.3805,11.6335-9.8207,19.3474-24.2312,20.235799-40.6372Z" style="fill: url(#Degradado_sin_nombre_459);"/>
        <path d="M184.111652,119.313764c2.7276-50.3685-36.127199-93.4242-86.784598-96.1674-32.637399-1.7673-62.183498,13.6463-79.815298,38.2973,17.8547-22.6257,46.135199-36.5318,77.221998-34.8484,50.657399,2.7432,89.512198,45.7988,86.784606,96.1674-.970508,17.9221-7.284208,34.1925-17.028208,47.8037,11.2503-14.2441,18.5675-31.7886,19.6215-51.2526Z" style="fill: url(#linear-gradient-2);"/>
      </g>
      <path d="M89.337858,160.548456c3.461899,2.885468,7.315933,5.26413,11.348679,7.222565,4.02681,1.975433,8.263657,3.507996,12.617722,4.525238,4.360947.96582,8.815125,1.555267,13.280609,1.474274,4.461151-.050446,8.911804-.64566,13.234741-1.746613,1.082733-.26593,2.148376-.600281,3.223907-.896637,1.068481-.320801,2.114716-.714203,3.173645-1.067444,2.093414-.815582,4.170837-1.572754,6.093903-2.695343,3.893372-2.176056,7.504883-4.857117,10.865814-7.804993,3.349487-2.965027,6.412262-6.269577,9.070496-9.88298,1.34494-1.794693,2.601013-3.659088,3.756348-5.587708,1.13739-1.938736,2.187347-3.930405,3.158417-5.965256-1.680145,4.184982-3.859589,8.174973-6.43161,11.901199-2.591522,3.714066-5.606659,7.133835-8.928802,10.225021-3.319519,3.098022-7.01001,5.793976-10.955139,8.067902-.994263.549561-1.997833,1.116364-3.072906,1.538361-1.053345.424347-2.09079.890076-3.158051,1.280121-1.074982.368713-2.137268.777069-3.223511,1.112762-1.095184.305664-2.174347.673035-3.2836.927277-8.829987,2.179565-18.21257,2.286255-27.019806.000763-8.779449-2.286224-17.077194-6.549591-23.750854-12.62851Z" style="fill: url(#Degradado_sin_nombre_458-2);"/>
    </g>
  </g>
</svg>