<?xml version="1.0" encoding="UTF-8"?>
<svg id="Layer_2" data-name="Layer 2" xmlns="http://www.w3.org/2000/svg" xmlns:xlink="http://www.w3.org/1999/xlink" viewBox="0 0 358.245481 113.701172">
  <defs>
    <linearGradient id="linear-gradient" x1="73.607839" y1="12.134631" x2="37.391575" y2="97.984209" gradientTransform="translate(.981466 2.326413) rotate(3.101326)" gradientUnits="userSpaceOnUse">
      <stop offset="0" stop-color="#001030"/>
      <stop offset=".209767" stop-color="#142f5d"/>
      <stop offset=".569056" stop-color="#3662a8"/>
      <stop offset=".633597" stop-color="#335da1"/>
      <stop offset=".720647" stop-color="#2b5290"/>
      <stop offset=".820543" stop-color="#1e3e74"/>
      <stop offset=".929143" stop-color="#0d244d"/>
      <stop offset="1" stop-color="#001030"/>
    </linearGradient>
    <linearGradient id="Degradado_sin_nombre_257" data-name="Degradado sin nombre 257" x1="17.643033" y1="35.544994" x2="58.712402" y2="75.114175" gradientTransform="translate(.981466 2.326413) rotate(3.101326)" gradientUnits="userSpaceOnUse">
      <stop offset="0" stop-color="#2b1451"/>
      <stop offset=".036004" stop-color="#2c1d5b"/>
      <stop offset=".172211" stop-color="#303a7c"/>
      <stop offset=".302271" stop-color="#335094"/>
      <stop offset=".422453" stop-color="#355da2"/>
      <stop offset=".523222" stop-color="#3662a8"/>
      <stop offset=".759968" stop-color="#303d7e"/>
      <stop offset="1" stop-color="#2b1451"/>
    </linearGradient>
    <radialGradient id="Degradado_sin_nombre_593" data-name="Degradado sin nombre 593" cx="45.813714" cy="43.040799" fx="45.813714" fy="43.040799" r="40.020416" gradientTransform="translate(1.186896 3.464089) rotate(3.106996) scale(.977315) skewX(.01135)" gradientUnits="userSpaceOnUse">
      <stop offset="0" stop-color="#5aa3aa"/>
      <stop offset=".018569" stop-color="#5ba5aa"/>
      <stop offset=".328908" stop-color="#67baab"/>
      <stop offset=".514061" stop-color="#569ba7"/>
      <stop offset=".838544" stop-color="#3c6ba1"/>
      <stop offset="1" stop-color="#32599f"/>
    </radialGradient>
    <radialGradient id="Degradado_sin_nombre_458" data-name="Degradado sin nombre 458" cx="45.678098" cy="59.596668" fx="45.678098" fy="59.596668" r="40.020408" gradientTransform="translate(1.186896 3.464089) rotate(3.106996) scale(.977315) skewX(.01135)" gradientUnits="userSpaceOnUse">
      <stop offset="0" stop-color="#5aa3aa"/>
      <stop offset=".277518" stop-color="#67baab"/>
      <stop offset=".400166" stop-color="#63b3aa"/>
      <stop offset=".572914" stop-color="#59a1a7"/>
      <stop offset=".77544" stop-color="#4882a4"/>
      <stop offset=".998965" stop-color="#32599f"/>
      <stop offset="1" stop-color="#32599f"/>
    </radialGradient>
    <radialGradient id="Degradado_sin_nombre_528" data-name="Degradado sin nombre 528" cx="36.839389" cy="66.638864" fx="36.839389" fy="66.638864" r="35.340182" gradientTransform="translate(.227666 1.186218) scale(.977344)" gradientUnits="userSpaceOnUse">
      <stop offset=".27648" stop-color="#32599f"/>
      <stop offset=".277119" stop-color="#32599f"/>
      <stop offset=".415105" stop-color="#4882a4"/>
      <stop offset=".540128" stop-color="#59a1a7"/>
      <stop offset=".646769" stop-color="#63b3aa"/>
      <stop offset=".722482" stop-color="#67baab"/>
      <stop offset=".854114" stop-color="#32599f"/>
      <stop offset=".880103" stop-color="#3c6ca1"/>
      <stop offset=".928729" stop-color="#4c8aa6"/>
      <stop offset=".970412" stop-color="#569ca9"/>
      <stop offset="1" stop-color="#5aa3aa"/>
    </radialGradient>
    <radialGradient id="Degradado_sin_nombre_459" data-name="Degradado sin nombre 459" cx="32.754013" cy="50.888064" fx="32.754013" fy="50.888064" r="23.788175" gradientTransform="translate(.227666 1.186218) scale(.977344)" gradientUnits="userSpaceOnUse">
      <stop offset="0" stop-color="#32599f"/>
      <stop offset=".001035" stop-color="#32599f"/>
      <stop offset=".22456" stop-color="#4882a4"/>
      <stop offset=".427086" stop-color="#59a1a7"/>
      <stop offset=".599834" stop-color="#63b3aa"/>
      <stop offset=".722482" stop-color="#67baab"/>
      <stop offset="1" stop-color="#5aa3aa"/>
    </radialGradient>
    <linearGradient id="linear-gradient-2" x1="8.239321" y1="47.472809" x2="86.688586" y2="47.472809" gradientUnits="userSpaceOnUse">
      <stop offset="0" stop-color="#001030"/>
      <stop offset=".04889" stop-color="#06193e"/>
      <stop offset=".216433" stop-color="#1a386b"/>
      <stop offset=".365815" stop-color="#294f8c"/>
      <stop offset=".490081" stop-color="#325da0"/>
      <stop offset=".573964" stop-color="#3662a8"/>
      <stop offset=".63836" stop-color="#315b9d"/>
      <stop offset=".748063" stop-color="#254882"/>
      <stop offset=".888777" stop-color="#112a57"/>
      <stop offset=".999999" stop-color="#001030"/>
    </linearGradient>
    <radialGradient id="Degradado_sin_nombre_458-2" data-name="Degradado sin nombre 458" cx="63.233532" cy="75.178136" fx="63.233532" fy="75.178136" r="16.539784" gradientTransform="translate(0 .353819)" xlink:href="#Degradado_sin_nombre_458"/>
  </defs>
  <g id="OBJECTS">
    <g>
      <g>
        <g>
          <path d="M58.069037,1.932492C28.576594.332494,3.266677,22.361791.462154,51.540362c1.929059-13.715235,14.046609-23.905798,28.107804-23.142989,14.848533.805561,26.233793,13.517734,25.429755,28.393467-.804088,14.875734-13.493019,26.281897-28.341599,25.476336C11.596919,81.50432.648708,70.062427.209306,56.218651c-.357064,29.311355,22.430347,53.950029,51.922745,55.550028,30.274984,1.642421,56.146726-21.61379,57.786191-51.944234C111.557665,29.494049,88.344025,3.574913,58.069037,1.932492Z" style="fill: url(#linear-gradient);"/>
          <g>
            <path d="M45.511285,13.238444C22.314019,11.979996,2.424007,29.406516.407999,52.416722c1.525698-14.154311,13.863066-24.795073,28.221712-24.016097,14.848533.805561,26.233793,13.517734,25.429755,28.393467-.804088,14.875734-13.493019,26.28185-28.341599,25.476336C11.359268,81.491452.240971,69.578195.24991,55.341537c-.476053,23.093779,17.419263,42.570215,40.616529,43.828663,23.686024,1.284986,43.927077-16.909764,45.209713-40.639178,1.28264-23.729413-16.878844-44.007593-40.564868-45.292579Z" style="fill: #c7c7c7;"/>
            <path d="M.254804,55.03647c.000378-.032666.002305-.065708.002823-.098421-.000988.032807-.001882.065614-.002823.098421Z" style="fill: #c7c7c7;"/>
            <path d="M.380004,52.720564c-.002635.032713-.00527.065425-.00781.098138.003011-.032571.004611-.065614.00781-.098138Z" style="fill: #c7c7c7;"/>
          </g>
          <g>
            <path d="M85.763692,61.110327c-.025736.209946-.051473.419891-.081961.629601-.034911.291114-.079138.576903-.123366.862738-.031053.219279-.066858.438274-.107416.657034-.051328.328635-.112215.656752-.177662.979872-.027618.157011-.059801.308979-.09203.460947-.208103,1.01183-.448906,2.007446-.727208,2.986657-.036464.142163-.07768.283997-.118661.421117-.047285.165543-.094336.326278-.146185.486778-.047521.170351-.099652.335658-.156489.500683-.07481.231298-.149667.462597-.229276.693659-.074857.231298-.154466.462361-.238827.693141-.158979.457317-.332033.909026-.509883,1.360545-.177803.451473-.364969.897619-.556604,1.338768-.082056.187697-.163876.370586-.245693.553476-.114618.257978-.233749.510864-.357727.763516-.102993.220221-.205751.435588-.31321.650718-.10756.215131-.21507.430214-.327144.640301-.112262.214895-.224335.424982-.336644.63983-.68204,1.264717-1.424446,2.492526-2.226699,3.673906-.125059.185293-.2552.375206-.384824.555503-.69098.98567-1.418847,1.945273-2.187741,2.864244-.149008.184068-.302533.363045-.46081.541786-.179214.211265-.363228.422248-.547006.628376-.13254.146547-.265128.293047-.397433.434786-.361722.393495-.732713.781616-1.107939,1.15998-.207915.209663-.41583.419326-.633061.623709-.688486.673532-1.404073,1.316803-2.137774,1.939852-.196011.167099-.396822.333961-.59735.496016-.882803.720621-1.792519,1.406221-2.729054,2.056703-.164488.115956-.333492.226868-.502779.342587-.243814.164506-.492428.328729-.740523.483384-.228476.146123-.456905.292246-.689897.433325-.128965.079472-.25313.15918-.376778.229319-.133996.083997-.272515.162951-.406279.242187-.074528.048786-.148817.092764-.227629.131699-.366192.2107-.732101.416639-1.102575.617487-1.200295.650577-2.430658,1.237095-3.686856,1.769407-.255012.106245-.505319.212727-.760143.314211-.426275.168984-.852268.333207-1.28226.482771-.342667.130332-.689615.250813-1.036281.366486-.522399.173462-1.049076.336978-1.579994.490737-.263058.076974-.530915.153712-.798536.225642-.106945.02781-.213937.055668-.325964.088004-.073022.02008-.145997.040113-.218736.055385-.077774.019797-.155592.039595-.238168.059109-.277126.071459-.554013.138063-.830669.199953-.092127.018996-.184252.037992-.276655.061796-.558016.12345-1.115328.232524-1.677108.336554-.217701.036201-.440249.072166-.65795.108367-.435403.072496-.870617.140137-1.310019.197926-.332974.039595-.670983.083714-1.003722.118501-.323141.035305-.646.065802-.973422.091303-.438414.038652-.881345.07226-1.328507.096017-.216431.012303-.432582.019797-.653528.027009-.547856.023097-1.095144.036672-1.646478.035541-.110239-.001131-.22043-.00231-.330669-.003535-.651975-.001744-1.307667-.022861-1.96764-.053877l-.119555-.006458c-.659456-.040584-1.313595-.090502-1.961947-.159321-.109721-.010747-.219395-.021494-.329116-.032241-.548229-.058591-1.090859-.131275-1.633019-.213481-.218878-.03111-.432956-.061937-.646799-.097572-.44199-.071977-.87871-.153288-1.310349-.23917-.322812-.060759-.640495-.125996-.957943-.196087-.326999-.070563-.65828-.150978-.985043-.226349-.430651-.10502-.855985-.219373-1.281036-.338487-.212526-.05958-.429898-.119397-.642424-.178977-.547288-.164176-1.089542-.332877-1.631043-.516002-.089254-.033655-.178791-.062503-.268327-.091398-.268374-.091398-.536464-.187603-.804324-.288616-.075186-.028093-.155172-.056422-.230358-.084563-.070669-.023003-.141057-.05086-.211491-.078671-.107886-.044308-.211256-.083526-.314625-.122743-.258256-.100495-.516235-.20575-.769506-.31077-.511248-.210276-1.017179-.429837-1.51784-.658731-.37419-.174028-.748052-.352816-1.112173-.535894-.373908-.178788-.737748-.366627-1.101305-.559274-.242356-.128447-.479724-.261419-.721797-.394626-.595891-.330143-1.18623-.674381-1.761137-1.037001-.190318-.116003-.380401-.236813-.565638-.357341-.213185-.13646-.426322-.27292-.638989-.418901-.592268-.397219-1.174421-.803487-1.741235-1.228092-.705518-.518642-1.390663-1.060145-2.060139-1.624839-.151031-.133113-.307099-.261654-.45813-.39472-.238262-.205043-.476195-.414942-.709141-.629271-.201281-.179071-.402325-.362903-.598291-.55126-.214643-.198963-.42444-.39769-.629203-.600942-.177379-.177704-.359556-.355739-.532185-.533207-.19093-.192882-.38186-.385764-.567802-.583219-.934557-.982559-1.819009-2.005607-2.653301-3.069193-.16576-.215555-.3318-.426302-.497276-.646664-.165758-.215508-.326717-.43078-.482641-.650577-.160724-.22008-.316648-.439924-.47229-.664529-.15597-.219797-.311614-.444355-.457752-.668441-.15089-.224369-.301498-.453499-.447354-.682347-.588457-.910958-1.142144-1.844024-1.660826-2.804051-.130751-.242423-.256941-.479849-.382895-.722036-.091089-.177893-.18213-.355739-.273221-.533584-.488946-.977656-.942886-1.982133-1.357775-2.99896-.093301-.226019-.182037-.446995-.265693-.672495-.088784-.220976-.172486-.446476-.256188-.671977-.522775-1.416544-.976245-2.87254-1.346954-4.352906-.067-.267829-.134046-.535658-.196058-.808012-.066247-.282206-.127457-.568889-.188671-.85562-.053214-.257459-.106145-.519726-.154325-.78171-.052177-.276644-.104357-.553287-.151737-.829648-.174039-1.037331-.313919-2.087295-.414699-3.149467-.015622-.15456-.031243-.309121-.041829-.468253-.018067-.197879-.031618-.390761-.044933-.588404-.016748-.221918-.033547-.443789-.040463-.669903-.012139-.130332-.019244-.265237-.021549-.399858-.025642-.500919-.036981-1.00113-.043239-1.50582-.007152-.932264.009881-1.867969.060836-2.811499.051002-.943482.135222-1.880366.242826-2.806408,2.133351-13.477903,14.13991-23.427693,28.041933-22.673511,6.009208.326043,11.452827,2.600327,15.75185,6.181516-6.853053,4.551728-11.542173,12.179766-12.020862,21.035284-.478642,8.855565,3.36108,16.941487,9.683454,22.207991,4.294183,3.580906,9.737561,5.860046,15.746769,6.186042,13.902024.754183,25.908865-9.200368,28.042216-22.678271Z" style="fill: url(#Degradado_sin_nombre_257);"/>
            <path d="M86.006236,58.30868c-.051002.94353-.134987,1.875605-.242544,2.801647-2.133351,13.477903-14.140192,23.432454-28.042216,22.678271-6.009208-.325995-11.452586-2.605135-15.746769-6.186042,6.848254-4.552011,11.537094-12.175241,12.01578-21.030759.478642-8.855565-3.360845-16.946248-9.678372-22.212516-4.299023-3.581189-9.742643-5.855474-15.75185-6.181516-13.902024-.754183-25.908582,9.195607-28.041933,22.673511,1.776711-14.952707,11.137119-27.394882,23.949317-33.621555.029453-.012774.058954-.025642.088643-.043224.398609-.189724.796984-.37464,1.199875-.55456.250307-.106481.500852-.21777.75111-.324299.73121-.310959,1.475448-.597218,2.228534-.868583.249225-.087344.498497-.174735.752474-.261796.078056-.024605.151314-.049446.22937-.074051.478595-.161348.961189-.308084,1.4483-.449776.263105-.077021.530962-.153712.798536-.225689.106995-.02781.213984-.055621.325729-.083196.423405-.116333.855893-.222578,1.287859-.319208l.276373-.057035c.558016-.12345,1.115561-.237285,1.677108-.336554.217981-.040962.440482-.076974.658233-.113175.4354-.072449.870333-.135329,1.309735-.193118.333259-.044355.670983-.083714,1.003958-.123262.323141-.035352.646047-.06585.973469-.091303.438367-.038652.881062-.067499,1.328228-.091256.216431-.012255.432862-.024558.65381-.03177.547571-.018336,1.094859-.031864,1.646476-.035588.110192.001178.220383.002357.330622.003535.65174.006552,1.307714.022908,1.967452.058685l.119508.006505c.659691.035777,1.313595.090502,1.96223.154466.109721.010794.219395.021494.329069.032288.547994.063351,1.090624.136036,1.633019.213481.218878.03111.432721.066698.646564.102333.44199.071977.878945.148574,1.310631.234409.322765.060712.640495.125996.957896.196087.326764.075371.658327.150978.984808.231157.430651.104973.85622.214518,1.281319.333679.212526.059533.429851.119397.642141.183738.547571.159415,1.089542.332924,1.631046.516002l.268607.08659c.418982.142823.837494.295215,1.24589.456658.108121.0395.211538.078765.31486.117982.258262.100448.516282.20575.769553.310723.468997.193542.932959.391656,1.391322.603865.074951.032901.145103.06552.220054.098421.243156.114023.481512.227857.724668.341928.714646.350978,1.423646.716049,2.117072,1.104359.237321.132972.474407.270704.711776.403629.381154.222484.757226.449399,1.133063.681168.027666.020693.055566.036625.083467.05251,12.066124,7.576377,20.030645,20.958405,20.185252,36.015897.007152.932264-.010163,1.872824-.061118,2.816306Z" style="fill: url(#Degradado_sin_nombre_593);"/>
          </g>
          <path d="M85.713678,61.263661c-.025689.209946-.051426.419938-.081961.629601-.034911.291114-.079091.57695-.123319.862738-.031053.219279-.066858.438274-.107463.657034-.051332.328682-.112215.656799-.177615.979872-.027666.157011-.059848.308979-.09203.460947-.20815,1.01183-.448953,2.007493-.727208,2.986705-.036464.142116-.077676.283997-.118661.42107-.047285.165543-.094336.326325-.146185.486825-.047568.170304-.099652.335611-.156489.500636-.074857.231298-.149667.462644-.229323.693707-.07481.231298-.154415.462314-.238827.693141-.158983.457317-.332033.909026-.509833,1.360498-.17785.45152-.364972.897666-.556604,1.338768-.082106.187697-.163927.370586-.2457.553476-.114661.257978-.233793.510912-.357723.763563-.102993.220174-.163688.466179-.271197.68131s-.186554.405845-.298581.615932c-.112309.214848-.230217.462644-.342526.677492-.682087,1.264717-1.340743,2.49658-2.142997,3.677913-.125107.18534-.265599.365213-.395222.545557-.69098.985622-1.426845,1.975817-2.195693,2.894789-.149008.184068-.298393.358001-.456717.536742-.179214.211218-.360734.409757-.544512.615932-.13254.1465-.254115.28937-.386423.43111-.361719.393495-.740194.800706-1.11542,1.17907-.207915.209663-.406373.411548-.623604.615884-.688486.673579-1.239491,1.124958-1.973192,1.748054-.196011.167099-.636731.500777-.837259.662832-.882803.720669-1.866812,1.372565-2.803346,2.023048-.164535.115956-.333539.226915-.502826.342587-.243814.164506-.492428.328729-.740523.483384-.228429.146123-.456858.292246-.68985.433325-.128965.079472-.25313.15918-.376778.229319-.133999.083997-.272515.162998-.406279.242187-.074528.048786-.148867.092764-.227676.131746-.366142.2107-.732101.416592-1.102528.61744-1.200298.650577-2.430662,1.237142-3.686856,1.769407-.255059.106245-.505319.212774-.760143.314211-.426275.168984-.852268.333207-1.282307.482818-.342667.130332-.689568.250813-1.036281.366486-.522399.173415-1.049032.336978-1.579947.49069-.263105.076974-.530962.153712-.798536.225689-.106992.02781-.213984.055621-.325964.088004-.073022.020033-.146041.040066-.218784.055338-.077774.019844-.155548.039595-.238121.059156-.277173.071412-.554063.138063-.830719.199906-.092124.018996-.184249.038039-.276608.061843-.558063.12345-1.115326.232524-1.677105.336507-.217748.036201-.440249.072213-.657997.108414-.435403.072449-.87057.140089-1.310019.197926-.332974.039547-.670983.083667-1.003675.118501-.323141.035305-.646047.065802-.973469.091256-.438367.038699-.881298.072307-1.328463.096064-.216431.012255-.432627.01975-.653575.026962-.547806.023144-1.095141.036672-1.646476.035588-.110192-.001178-.220383-.002357-.330622-.003535-.651975-.001744-1.307714-.022908-1.967687-.053877l-.119508-.006505c-.659456-.040584-1.313642-.090502-1.961994-.159321-.109721-.0107-.219395-.021447-.329069-.032241-.548229-.058543-1.090906-.131228-1.633019-.213481-.218878-.031063-.432956-.061937-.646799-.097525-.442037-.072024-.878708-.153335-1.310396-.239217-.322765-.060759-.640448-.125996-.957896-.19604-.327046-.07061-.658327-.151025-.985091-.226396-.430604-.10502-.855938-.219326-1.280989-.338487-.212573-.059533-.429898-.119397-.642424-.17893-.547288-.164176-1.089589-.332924-1.631043-.516002-.089301-.033655-.178838-.06255-.268374-.091398-.268327-.091445-.536467-.18765-.804277-.288616-.075186-.028093-.155172-.056469-.230358-.084563-.070716-.02305-.141101-.05086-.211538-.078718-.107839-.044261-.211208-.083526-.314578-.122743-.258259-.100448-.516282-.20575-.769553-.310723-.511201-.210276-1.017179-.429837-1.51784-.658779-.374143-.174028-.748052-.352769-1.112126-.535847-.373908-.178836-.737748-.366674-1.101305-.559321-.242403-.1284-.479724-.261371-.721845-.394579-.595889-.330143-1.186183-.674428-1.761137-1.037048-.190269-.115956-.380352-.236766-.565591-.357294-.213185-.13646-.426369-.27292-.639036-.418948-.592268-.397171-1.174374-.80344-1.741188-1.228092-.705518-.518595-1.390663-1.060145-2.060188-1.624839-.151031-.133066-.30705-.261607-.458126-.39472-.238217-.205043-.476197-.414895-.709143-.629271-.201279-.179071-.402279-.362856-.598291-.551213-.214596-.19901-.424393-.39769-.629154-.600942-.177428-.177751-.359607-.355786-.532187-.533254-.19093-.192882-.381907-.385764-.567802-.583172-.934606-.982606-1.819007-2.005654-2.653303-3.06924-.165805-.215508-.331798-.426302-.497274-.646617-.165758-.215555-.326717-.430827-.482641-.650624-.160724-.22008-.316648-.439877-.472337-.664482-.155924-.219797-.311614-.444402-.457705-.668489-.15089-.224322-.301545-.453452-.447401-.682347-.588457-.910958-1.142097-1.844024-1.660779-2.804004-.130753-.24247-.256941-.479849-.382895-.722083-.091089-.177893-.182178-.355739-.273221-.533584-.488944-.977609-.942886-1.982133-1.357775-2.99896-.093301-.225972-.182037-.446947-.26574-.672495-.088735-.220976-.172439-.446429-.256188-.67193-.522728-1.416544-.976245-2.872587-1.346907-4.352906-.067047-.267876-.134046-.535658-.196058-.808012-.066247-.282206-.127506-.568937-.188671-.855667-.053214-.257459-.106191-.519726-.154325-.78171-.052179-.276596-.104357-.55324-.151737-.829601-.174086-1.037378-.313918-2.087295-.414701-3.149514-.015668-.15456-.031288-.309121-.041828-.468206-.018067-.197926-.031618-.390808-.044933-.588451-.01675-.221871-.033547-.443742-.04051-.669856-.012092-.130379-.019196-.265237-.021549-.399858-.025641-.500966-.036981-1.00113-.043239-1.50582-.007105-.932264.009881-1.867969.060885-2.811499.051001-.943482.135221-1.880413.242779-2.806455,2.13335-13.477903,14.139908-23.427693,28.041934-22.673463,6.009255.325995,11.452869,2.600327,15.751848,6.181516-6.853053,4.551728-11.422524,12.209038-11.901166,21.064603-.478689,8.855518,3.444076,16.789236,9.766403,22.055694,4.294227,3.580953,9.534919,5.982978,15.544174,6.308973,13.902021.75423,25.908861-9.200368,28.042166-22.678271Z" style="fill: url(#Degradado_sin_nombre_458);"/>
          <path d="M71.535469,88.463635c-.886897.724958-1.800894,1.414658-2.741805,2.068959-.165287.11671-.335092.228282-.505178.344661-.244896.165496-.494733.330756-.743955.486306-.229514.147018-.459025.29399-.6931.435918-.129576.079943-.254354.16017-.378566.230686-.134611.084516-.273785.16394-.408161.243648-.074904.049069-.149522.09333-.228711.1325-.367886.211972-.735536.419137-1.10775.621164-1.205897.654489-2.442001,1.24459-3.704076,1.78006-.256236.106905-.507672.214094-.763672.316144-.428251.169974-.85622.335234-1.288282.485694-.344266.131134-.692811.252368-1.04108.368748-.524845.174499-1.053972.339005-1.587333.493707-.264328.077445-.533408.154655-.8023.227056-.107416.027999-.214925.055998-.32747.088522-.073348.020174-.146656.040349-.219772.055668-.078103.019986-.156301.039877-.23925.059533-.278443.071883-.556651.138911-.83453.201131-.092595.019185-.185143.038275-.277973.062267-.560603.124157-1.120501.233938-1.684916.338581-.218736.036436-.442272.072684-.661009.109074-.437426.07292-.874617.141032-1.316089.199198-.334527.03983-.674136.084233-1.00838.119255-.324647.035541-.649008.066227-.977986.091916-.440437.038888-.885388.072731-1.334627.09663-.217463.012397-.43465.019986-.656633.027245-.550346.023285-1.100175.036955-1.654095.035871-.110712-.001178-.221421-.002357-.332175-.003535-.654989-.001697-1.313739-.022955-1.976818-.054065l-.120025-.006505c-.662514-.04082-1.319759-.090973-1.971075-.160122-.110239-.010794-.22043-.021588-.330622-.03243-.55077-.058826-1.095985-.131888-1.640594-.214612-.219866-.031251-.434977-.062267-.649811-.098091-.44406-.072402-.882756-.154136-1.316418-.24049-.32427-.061089-.643459-.126703-.962365-.197172-.328505-.07094-.661338-.151874-.989607-.227622-.432627-.105586-.85989-.220598-1.286918-.340419-.213561-.059863-.431874-.120056-.645435-.17992-.549782-.165119-1.094576-.33481-1.638524-.518925-.089725-.033891-.179638-.06288-.269645-.091963-.269551-.091916-.538913-.188687-.807993-.290219-.075516-.028282-.155877-.056799-.231393-.085081-.071046-.023144-.141762-.051143-.212526-.079142-.108357-.044497-.212197-.083997-.316036-.12345-.259482-.10106-.518682-.206882-.773082-.312514-.513553-.211454-1.021884-.432288-1.524851-.662549-.375884-.175018-.751486-.354796-1.117255-.538911-.375649-.179873-.741135-.368795-1.106386-.562526-.243485-.129154-.481935-.26288-.725138-.396889-.59862-.332029-1.191641-.678293-1.76923-1.042987-.191165-.116663-.382093-.23818-.568226-.359368-.214173-.137308-.428298-.274522-.641951-.4214-.594999-.399481-1.179786-.80806-1.749188-1.235163-.708765-.521612-1.39706-1.06632-2.069598-1.634267-.151737-.133867-.308508-.263163-.460245-.39703-.239344-.206222-.47836-.417299-.712387-.632948-.202222-.180108-.404161-.364977-.60102-.554418-.215631-.200141-.426369-.4-.632073-.60443-.178226-.178741-.361205-.357813-.534585-.536318-.191824-.194013-.383648-.388027-.570437-.586613-.93884-.988262-1.82729-2.017297-2.665442-3.087105-.166511-.21678-.333257-.428753-.499485-.650388-.166511-.21678-.328222-.433325-.484853-.654442-.161429-.221353-.31806-.442422-.474454-.668347-.156677-.22107-.313023-.446947-.45982-.672354-.151551-.225689-.302911-.456186-.449426-.686306-.591092-.916285-1.147273-1.854865-1.66826-2.820454-.131364-.243884-.258118-.482677-.384683-.726278-.091466-.17893-.182931-.357813-.274397-.536742-.491204-.983313-.947168-1.993729-1.363892-3.016495-.093724-.227339-.182884-.449587-.266916-.676408-.08916-.222295-.173237-.449116-.257318-.675889-.52508-1.424887-.980574-2.889415-1.352929-4.378454-.067282-.269432-.134611-.538816-.196858-.812773-.066527-.283855-.128024-.572236-.189518-.860664-.053447-.258967-.106614-.522743-.154983-.78633-.052414-.278199-.104781-.556492-.152396-.834456-.174792-1.043459-.315189-2.099597-.416394-3.167991-.015715-.155503-.031382-.310959-.042014-.470987-.018116-.199057-.031713-.393071-.045076-.591939-.016844-.223144-.033641-.446335-.040604-.673768-.012184-.131134-.019338-.266792-.021643-.402215-.025784-.503888-.037076-1.007022-.043333-1.514682-.007152-.937732.010022-1.878952.061306-2.828043.051332-.949045.135975-1.89149.244145-2.823.953189-6.027098,5.242146-12.139465,9.411737-16.129798C5.731638,37.39298,1.348298,44.23106.306982,50.815215c-.108168.93151-.192812,1.873955-.244097,2.823-.051332.949092-.068458,1.890312-.061353,2.828043.006258.507659.017597,1.010793.043335,1.514682.002353.135423.009456.271082.021643.402215.006962.227433.023806.450624.040603.673768.013409.198869.02696.392882.045121.591939.010586.160028.026301.315484.041969.470987.101205,1.068394.241603,2.124532.416394,3.167991.047615.277963.10003.556257.152443.834456.048321.263587.101487.527362.154936.78633.061495.288428.122989.576808.189518.860664.062294.273957.129576.543341.196907.812773.372307,1.489039.8278,2.953568,1.352928,4.378454.084079.226773.16811.453594.257271.675889.08408.22682.173239.449069.266916.676408.416771,1.022766.872735,2.033182,1.363892,3.016495.091466.17893.182931.357813.274444.536742.126518.243601.253318.482394.384636.726278.520987.965589,1.077168,1.90417,1.668309,2.820454.146513.23012.297828.460617.449422.686306.14675.225406.303145.451284.459775.672354.156395.225925.313025.446995.474454.668347.15663.221117.318342.437662.484853.654442.166228.221635.332976.433608.499534.650388.838104,1.069808,1.726553,2.098843,2.665395,3.087105.186789.198586.378611.392599.570435.586613.17338.178506.356405.357577.534585.536318.205751.204431.416442.404289.632075.60443.196856.189441.398796.37431.601018.554418.234028.215649.47309.426726.712434.632948.151692.133867.308461.263163.460198.39703.672583.567947,1.360836,1.112655,2.069598,1.634267.569402.427103,1.154189.835681,1.749186,1.235163.213655.146877.427781.284091.641953.4214.186131.121188.37706.242705.568226.359368.577589.364694,1.17061.710959,1.76923,1.042987.24325.134009.481653.267735.725185.396889.365206.193731.73069.382653,1.106339.562526.365768.184115.74142.363893,1.117302.538911.502967.230261,1.01125.451095,1.524851.662549.254401.105633.5136.211454.773035.312514.10384.039453.207727.078953.316083.12345.070766.027999.141433.055998.212479.079142.075516.028282.155877.056799.23144.085081.269033.101532.538396.198303.807993.290219.08996.029083.17992.058072.269598.091963.543948.184115,1.088742.353806,1.638573.518925.213512.059863.431872.120056.645386.17992.427028.119821.854291.234834,1.286918.340419.328269.075748.661105.156681.989654.227622.318862.070469.638048.136083.962318.197172.433662.086354.872405.168088,1.316465.24049.214831.035824.429898.066839.649764.098091.544653.082724,1.089824.155786,1.640594.214612.110192.010841.220433.021636.330622.03243.651316.069149,1.308561.119302,1.971075.160122l.120072.006505c.663032.03111,1.321785.052369,1.976768.054065.110756.001178.221512.002404.332175.003535.553922.001084,1.103754-.012585,1.654145-.035871.221983-.007259.439167-.014848.656586-.027245.449236-.023898.894237-.057742,1.334676-.09663.328925-.025689.653337-.056375.977936-.091916.334245-.035022.673853-.079425,1.00838-.119255.441475-.058166.878663-.126278,1.316089-.199198.218736-.036389.442322-.072637.661056-.109074.564367-.104643,1.124265-.214424,1.684869-.338581.09283-.023992.185378-.043083.277973-.062267.277926-.06222.556134-.129248.83453-.201131.08295-.019656.161147-.039547.23925-.059533.073116-.015319.14642-.035494.219775-.055668.112541-.032524.220051-.060523.327514-.088522.268845-.072402.537925-.149611.802253-.227056.533361-.154702,1.062488-.319208,1.587333-.493707.348313-.11638.696864-.237615,1.04108-.368748.432062-.150459.860031-.315673,1.288282-.485694.256-.10205.507484-.209239.763719-.316144,1.262028-.53547,2.498132-1.12557,3.704076-1.78006.372167-.202027.739818-.409191,1.107703-.621164.079186-.03917.153854-.083431.228711-.1325.134375-.079708.273597-.159133.408161-.243648.12426-.070516.249037-.150742.378569-.230686.234072-.141928.463583-.288899.693141-.435918.249225-.15555.499015-.32081.743958-.486306.170087-.11638.339891-.227952.505134-.344661.940907-.654301,1.854905-1.344001,2.741849-2.068911.201469-.163092.40322-.330898.600173-.498986.517552-.440066,1.021602-.89512,1.518075-1.358707-.110333.095498-.217937.194108-.32916.288663-.196956.168088-.398707.335894-.600223.498939Z" style="fill: url(#Degradado_sin_nombre_528);"/>
          <path d="M54.936715,55.65127c.478689-8.855518-3.360797-16.946248-9.678372-22.212469-4.298979-3.581189-9.742596-5.855521-15.75185-6.181516-7.721742-.418948-14.818986,2.610367-20.004108,7.566431,5.062039-4.299265,11.670243-6.890684,18.820795-6.502751,6.009208.325995,11.452824,2.600375,15.75185,6.181564,6.317575,5.266222,10.157014,13.356951,9.678372,22.212469-.387082,7.160917-3.528955,13.514245-8.337676,18.091191,5.473588-4.629126,9.102995-11.421719,9.520989-19.154919Z" style="fill: url(#Degradado_sin_nombre_459);"/>
          <path d="M86.624947,58.090815c1.283342-23.741905-16.997928-44.036817-40.832349-45.329863-15.35597-.833042-29.257476,6.432376-37.553277,18.051974,8.400676-10.664944,21.706715-17.21978,36.333124-16.426286,23.83442,1.293046,42.115691,21.587912,40.832352,45.329863-.456626,8.447835-3.427236,16.117118-8.01181,22.53295,5.293291-6.714158,8.73605-14.984006,9.23196-24.158638Z" style="fill: url(#linear-gradient-2);"/>
        </g>
        <path d="M42.033658,77.527374c1.673492,1.305756,3.496323,2.395325,5.408356,3.268585,1.89949.89682,3.888214,1.589844,5.926147,2.036285,4.074921.89447,8.322739.828735,12.346497-.203339,1.991257-.514069,4.02829-1.200104,5.800293-2.167542,1.815918-.995789,3.51239-2.232269,5.098755-3.588562,3.178131-2.725769,5.734955-6.143738,7.682495-9.91571-.74231,1.992188-1.737305,3.892883-2.898712,5.695038-1.193359,1.781952-2.607025,3.416718-4.158325,4.910004-1.549286,1.500305-3.299072,2.783783-5.165192,3.893158-.46962.268127-.95401.53714-1.473358.744812-.500412.202515-.993439.423584-1.500488.610352-1.014297.374176-2.044296.709229-3.095001.973755-4.200699,1.049988-8.684372,1.076996-12.85289-.071136-4.157196-1.134491-8.060226-3.220673-11.118576-6.185699Z" style="fill: url(#Degradado_sin_nombre_458-2);"/>
      </g>
      <g>
        <path d="M144.348996,15.5v19.5c0,2.267578-.166992,4.517578-.5,6.75-.333984,2.234375-.867188,4.416992-1.599609,6.549805.532227,2.067383,1.015625,4.18457,1.449219,6.350586.433594,2.166992.650391,4.183594.650391,6.049805v23.799805h-15.200195V15.5h15.200195ZM152.148801,43.299805v10.600586h-12.399414v-10.600586h12.399414ZM183.848996,15.5l-18,27.799805c-.734375,1.200195-1.53418,2.234375-2.400391,3.100586-.867188.867188-1.734375,1.599609-2.599609,2.199219v.300781c.932617.53418,1.932617,1.333984,3,2.399414,1.06543,1.067383,1.932617,2.200195,2.599609,3.400391l18.600586,29.799805h-17.100586l-21.299805-36.099609,20.700195-32.900391h16.5Z" style="fill: #e6e7e8;"/>
        <path d="M230.847043,54.099609l-.099609,8.300781-22,.099609c-1.799805,0-3.084961.43457-3.850586,1.299805-.766602.867188-1.149414,2.03418-1.149414,3.5v2.400391c0,1.666992.46582,2.950195,1.399414,3.849609.933594.900391,2.433594,1.350586,4.5,1.350586,1.733398,0,3.616211-.366211,5.650391-1.100586,2.033203-.732422,4.049805-1.765625,6.049805-3.099609,2-1.333008,3.765625-2.900391,5.299805-4.700195v6.400391c-.599609,1-1.484375,2.25-2.649414,3.75-1.166992,1.5-2.650391,2.966797-4.450195,4.399414-1.799805,1.43457-3.900391,2.650391-6.299805,3.650391-2.400391,1-5.134766,1.5-8.200195,1.5-3,0-5.700195-.53418-8.099609-1.600586-2.400391-1.06543-4.300781-2.632812-5.700195-4.699219-1.400391-2.066406-2.100586-4.632812-2.100586-7.700195v-5.100586c0-3.932617,1.333008-7,4-9.199219,2.666016-2.200195,6.333008-3.300781,11-3.300781h26.700195ZM217.646848,33.799805c4.132812,0,7.632812.549805,10.5,1.650391,2.866211,1.099609,5.050781,2.966797,6.550781,5.599609,1.5,2.634766,2.25,6.25,2.25,10.850586v32.599609h-11.800781l-2.099609-10.700195-1-1.5v-20.5c0-2.333008-.549805-4.032227-1.650391-5.099609-1.099609-1.06543-3.183594-1.600586-6.25-1.600586-2.53418,0-5.699219.084961-9.5.25-3.799805.167969-7.699219.384766-11.699219.650391l-1.400391-9.799805c2.400391-.46582,5.166016-.866211,8.299805-1.200195,3.132812-.333008,6.265625-.615234,9.400391-.849609,3.132812-.233398,5.932617-.350586,8.399414-.350586Z" style="fill: #e6e7e8;"/>
        <path d="M260.346067,35.099609l1.5,9.800781,1.5,1.299805v38.299805h-14.799805v-49.400391h11.799805ZM280.346067,33.799805c4.400391,0,7.75,1.150391,10.049805,3.450195,2.300781,2.299805,3.450195,5.716797,3.450195,10.25v37h-14.200195v-32.400391c0-2.132812-.449219-3.632812-1.349609-4.5-.900391-.865234-2.28418-1.299805-4.150391-1.299805-1.133789,0-2.25.150391-3.349609.450195s-2.367188.817383-3.799805,1.549805c-1.43457.734375-3.18457,1.767578-5.25,3.100586l-.900391-8.200195c3.265625-3.132812,6.432617-5.483398,9.5-7.049805,3.06543-1.566406,6.400391-2.350586,10-2.350586ZM311.145871,33.799805c4.46582,0,7.866211,1.166992,10.200195,3.5,2.333008,2.334961,3.5,5.734375,3.5,10.200195v37h-14.700195v-32.400391c0-2.06543-.399414-3.549805-1.199219-4.449219-.800781-.900391-2.200195-1.350586-4.200195-1.350586-1.200195,0-2.334961.166992-3.400391.5-1.067383.334961-2.299805.867188-3.700195,1.600586-1.399414.734375-3.099609,1.734375-5.099609,3l-.799805-8.200195c3.200195-3.132812,6.349609-5.483398,9.450195-7.049805,3.099609-1.566406,6.415039-2.350586,9.949219-2.350586Z" style="fill: #e6e7e8;"/>
        <path d="M347.646848,13.299805c2.932617,0,4.400391,1.5,4.400391,4.5v5.300781c0,3-1.467773,4.5-4.400391,4.5h-6.400391c-2.933594,0-4.399414-1.5-4.399414-4.5v-5.300781c0-3,1.46582-4.5,4.399414-4.5h6.400391ZM351.746457,35.099609v49.400391h-14.699219v-49.400391h14.699219Z" style="fill: #e6e7e8;"/>
      </g>
    </g>
  </g>
</svg>