<?xml version="1.0" encoding="UTF-8"?>
<svg id="Layer_2" data-name="Layer 2" xmlns="http://www.w3.org/2000/svg" xmlns:xlink="http://www.w3.org/1999/xlink" viewBox="0 0 370.173482 120">
  <defs>
    <linearGradient id="Degradado_sin_nombre_257" data-name="Degradado sin nombre 257" x1="23.710656" y1="25.052724" x2="80.873409" y2="80.127427" gradientTransform="translate(.952572 9.560532) rotate(3.101326)" gradientUnits="userSpaceOnUse">
      <stop offset="0" stop-color="#210440"/>
      <stop offset=".054429" stop-color="#1b1050"/>
      <stop offset=".185461" stop-color="#112a71"/>
      <stop offset=".31063" stop-color="#0a3c89"/>
      <stop offset=".426253" stop-color="#054897"/>
      <stop offset=".523222" stop-color="#044c9d"/>
      <stop offset=".745721" stop-color="#102c73"/>
      <stop offset="1" stop-color="#210440"/>
    </linearGradient>
    <radialGradient id="Degradado_sin_nombre_593" data-name="Degradado sin nombre 593" cx="125.540713" cy="26.353909" fx="125.540713" fy="26.353909" r="83.131841" gradientTransform="translate(-20.461583 26.993367) rotate(3.101194) scale(.655424)" gradientUnits="userSpaceOnUse">
      <stop offset="0" stop-color="#04969d"/>
      <stop offset=".018569" stop-color="#04999d"/>
      <stop offset=".328908" stop-color="#04b19d"/>
      <stop offset=".560706" stop-color="#058699"/>
      <stop offset=".854" stop-color="#065694"/>
      <stop offset="1" stop-color="#074493"/>
    </radialGradient>
    <radialGradient id="Degradado_sin_nombre_458" data-name="Degradado sin nombre 458" cx="125.259006" cy="60.744354" fx="125.259006" fy="60.744354" r="83.131825" gradientTransform="translate(-20.461583 26.993367) rotate(3.101194) scale(.655424)" gradientUnits="userSpaceOnUse">
      <stop offset="0" stop-color="#04969d"/>
      <stop offset=".277518" stop-color="#04b19d"/>
      <stop offset=".391067" stop-color="#04aa9c"/>
      <stop offset=".551093" stop-color="#04989a"/>
      <stop offset=".738653" stop-color="#057997"/>
      <stop offset=".945649" stop-color="#065094"/>
      <stop offset="1" stop-color="#074493"/>
    </radialGradient>
    <radialGradient id="Degradado_sin_nombre_528" data-name="Degradado sin nombre 528" cx="109.178309" cy="81.838535" fx="109.178309" fy="81.838535" r="73.409891" gradientTransform="translate(-21.085943 20.727214) scale(.655447)" gradientUnits="userSpaceOnUse">
      <stop offset=".27648" stop-color="#074493"/>
      <stop offset=".310032" stop-color="#065094"/>
      <stop offset=".437815" stop-color="#057997"/>
      <stop offset=".553599" stop-color="#04989a"/>
      <stop offset=".652386" stop-color="#04aa9c"/>
      <stop offset=".722482" stop-color="#04b19d"/>
      <stop offset=".854114" stop-color="#074493"/>
      <stop offset=".887943" stop-color="#065f96"/>
      <stop offset=".933391" stop-color="#047d99"/>
      <stop offset=".972343" stop-color="#048f9c"/>
      <stop offset="1" stop-color="#04969d"/>
    </radialGradient>
    <radialGradient id="Degradado_sin_nombre_459" data-name="Degradado sin nombre 459" cx="100.69202" cy="49.120408" fx="100.69202" fy="49.120408" r="49.41365" gradientTransform="translate(-21.085943 20.727214) scale(.655447)" gradientUnits="userSpaceOnUse">
      <stop offset="0" stop-color="#074493"/>
      <stop offset=".054351" stop-color="#065094"/>
      <stop offset=".261347" stop-color="#057997"/>
      <stop offset=".448907" stop-color="#04989a"/>
      <stop offset=".608933" stop-color="#04aa9c"/>
      <stop offset=".722482" stop-color="#04b19d"/>
      <stop offset="1" stop-color="#04969d"/>
    </radialGradient>
    <radialGradient id="Degradado_sin_nombre_458-2" data-name="Degradado sin nombre 458" cx="88.062468" cy="87.148175" fx="88.062468" fy="87.148175" r="22.867651" gradientTransform="translate(0 -.008117)" xlink:href="#Degradado_sin_nombre_458"/>
  </defs>
  <g id="OBJECTS">
    <g>
      <g>
        <path d="M63.40082.397905C31.085193-1.351932,3.376834,22.879165.568375,54.874222,2.693793,35.193043,19.880723,20.397356,39.883453,21.480501c20.685181,1.120111,36.545749,18.796036,35.42566,39.480334-1.120159,20.684298-18.796843,36.544189-39.48209,35.424144C15.824359,95.301834.335691,78.736777.348145,58.941096c-.663179,32.111264,24.266412,59.192712,56.582038,60.942549,32.996505,1.786737,61.193893-23.512561,62.980707-56.507657C121.697709,30.380892,96.397325,2.184642,63.40082.397905Z" style="fill: #bebdbe;"/>
        <path d="M.354962,58.516909c.000527-.045421.003212-.091365.003933-.136851-.001376.045617-.002622.091234-.003933.136851Z" style="fill: #bebdbe;"/>
        <path d="M.529376,55.296705c-.003671.045486-.007341.090972-.01088.136458.004195-.045289.006423-.091234.01088-.136458Z" style="fill: #bebdbe;"/>
        <path d="M119.475608,66.96244c-.035853.291924-.071706.583847-.114179.875443-.048634.404787-.110246.802167-.171858,1.199613-.043259.304901-.093139.609408-.149639.913588-.071504.456958-.156324.913195-.247497,1.362485-.038475.21832-.083307.429627-.128205.640934-.289904,1.406922-.625362,2.791298-1.013059,4.152865-.050797.197674-.108214.39489-.165304.585551-.065872.230183-.131417.453681-.203647.676851-.0662.236868-.138824.466724-.218002.696186-.104216.321614-.208498.643228-.319399.964514-.104282.321614-.215183.6429-.332705.963793-.22147.635887-.462549,1.263975-.710308,1.891801-.247693.62776-.50843,1.248114-.775394,1.861521-.11431.260988-.228292.51529-.342269.769593-.159672.358711-.325631.710343-.498341,1.061647-.143477.306212-.286627.605673-.436326.904806-.14984.299133-.29961.598201-.455737.890321-.15639.298805-.312517.590926-.468972.889666-.950136,1.758554-1.984365,3.465789-3.101968,5.108466-.174218.257645-.355514.521713-.53609.772411-.962589,1.370546-1.976565,2.704848-3.047697,3.982653-.20758.255941-.421452.504804-.641945.753338-.24966.293759-.506005.587124-.762022.873739-.184639.20377-.369344.407474-.553656.604558-.503908.547144-1.020727,1.086816-1.543446,1.61292-.289642.29153-.579284.583061-.881904.86725-.959115.936528-1.955984,1.830978-2.978088,2.697311-.273059.232346-.552804.464364-.832155.689697-1.229815,1.002004-2.497121,1.955311-3.801788,2.859789-.229144.161233-.464581.315453-.70041.476358-.339653.228741-.685991.457089-1.031608.672132-.318285.20318-.636504.40636-.961082.602527-.179658.110504-.35263.221335-.524882.318861-.186667.116796-.379635.226578-.565978.336754-.103823.067836-.207313.128986-.317105.183124-.510134.292972-1.019875.579325-1.535974.858599-1.672106.904609-3.3861,1.720147-5.136081,2.460311-.355252.147731-.70395.295791-1.05894.436902-.593835.234968-1.187276.463316-1.786289.67128-.477362.181223-.960688.348748-1.443622.509588-.727743.241194-1.461446.468559-2.201056.682357-.36646.10703-.739606.213732-1.112424.313749-.148983.03867-.298032.077405-.454094.122367-.101725.027921-.203385.055776-.304717.077012-.108345.027528-.216752.055055-.331787.08219-.386058.099361-.771785.191972-1.157187.278029-.128341.026413-.256677.052827-.385403.085925-.77736.171654-1.553741.323318-2.336344.467969-.303275.050336-.613302.100345-.916577.150681-.606551.100803-1.212839.194856-1.824961.27521-.46386.055055-.934733.116402-1.398265.164772-.450161.049091-.899929.091496-1.356054.126955-.610745.053744-1.227783.100476-1.850716.133509-.301506.017106-.602622.027528-.910416.037556-.763206.032116-1.525622.050992-2.293674.049419-.153571-.001573-.307077-.003212-.460648-.004916-.908253-.002425-1.821683-.031788-2.741079-.074914l-.166549-.008979c-.918674-.056432-1.829942-.12584-2.733148-.221532-.15285-.014944-.305635-.029887-.458485-.044831-.763727-.081469-1.519653-.182534-2.274925-.296839-.304914-.043258-.603142-.086122-.901043-.135672-.615727-.100082-1.224113-.213142-1.825419-.33256-.449702-.084483-.89226-.175193-1.33449-.272654-.455536-.098116-.917036-.209931-1.372244-.314732-.59993-.146027-1.192454-.305032-1.784585-.470656-.296065-.082845-.598882-.166018-.894947-.248863-.762416-.228282-1.517818-.462857-2.272172-.717487-.124338-.046797-.24907-.086909-.373801-.127086-.373867-.127086-.747337-.260857-1.120486-.401313-.10474-.039063-.216166-.078454-.320907-.117582-.098448-.031984-.196503-.07072-.294623-.109389-.150294-.061609-.294296-.11614-.438297-.170671-.359772-.139735-.719156-.28609-1.071983-.432118-.712209-.292382-1.417011-.597676-2.114472-.915948-.521277-.241981-1.042095-.490581-1.549345-.745146-.520884-.2486-1.027741-.509785-1.534204-.777654-.337621-.178602-.668294-.363495-1.005521-.548717-.830123-.459055-1.652513-.937708-2.453403-1.441921-.265128-.161299-.529929-.329282-.787978-.496873-.296983-.189744-.5939-.379488-.890162-.582471-.825076-.552321-1.636061-1.117227-2.425678-1.707628-.982843-.721157-1.937304-1.474103-2.869937-2.259294-.210398-.18509-.427813-.363823-.638211-.548848-.331918-.285107-.663378-.576965-.987889-.874984-.2804-.248994-.56047-.504607-.833466-.766512-.299015-.276652-.591279-.552977-.876529-.835593-.247103-.247093-.50089-.494645-.741376-.74141-.26598-.268197-.531961-.536395-.790993-.81095-1.301911-1.366221-2.534023-2.788742-3.696259-4.267629-.230916-.299723-.462224-.592761-.692744-.899169-.230914-.299657-.455142-.598987-.672357-.904609-.223901-.306015-.441116-.611702-.657938-.924009-.217278-.305622-.434102-.617863-.637684-.929449-.210202-.311979-.42001-.630578-.623199-.948784-.819767-1.266662-1.591097-2.564064-2.313662-3.898956-.182146-.337082-.35794-.667216-.533403-1.003971-.126895-.247355-.253721-.494645-.380618-.741934-.68114-1.359404-1.313515-2.756102-1.891488-4.169971-.129975-.314273-.253592-.621534-.370131-.935086-.123683-.30726-.240287-.620813-.356891-.934365-.728267-1.969665-1.359987-3.994188-1.876413-6.052596-.093336-.372409-.186737-.744818-.273125-1.123519-.092287-.392399-.177558-.791025-.262834-1.189716-.074131-.35799-.147869-.722665-.214987-1.086947-.072687-.384665-.145378-.769331-.211382-1.153603-.24245-1.44238-.437314-2.902326-.577709-4.379247-.021763-.214912-.043524-.429824-.058271-.651093-.025169-.275145-.044046-.543342-.062595-.818159-.023332-.308571-.046733-.617077-.056368-.931481-.016911-.181223-.026808-.368804-.030019-.555992-.035722-.696514-.051518-1.392044-.060236-2.093801-.009963-1.296287.013764-2.597359.084749-3.909311.07105-1.311886.188375-2.614597.338276-3.902233,2.971927-18.740653,19.698013-32.575562,39.064632-31.526892,8.371302.453353,15.954694,3.615684,21.943574,8.595228-9.546845,6.329052-16.07916,16.93563-16.746011,29.248984-.666786,12.31342,4.68225,23.556671,13.489817,30.8796,5.982136,4.979151,13.565193,8.148233,21.936495,8.60152,19.366619,1.04867,36.093098-12.792858,39.065025-31.533512Z" style="fill: url(#Degradado_sin_nombre_257);"/>
        <path d="M119.813491,63.066827c-.07105,1.311952-.188048,2.607977-.337883,3.895613-2.971927,18.740653-19.698406,32.582182-39.065025,31.533512-8.371302-.453288-15.954359-3.622369-21.936495-8.60152,9.54016-6.329445,16.072085-16.929338,16.738933-29.242692.666786-12.31342-4.681922-23.563291-13.482738-30.885892-5.98888-4.979545-13.572272-8.141875-21.943574-8.595228C20.42009,20.121949,3.694004,33.956857.722077,52.697511,3.197176,31.906183,16.236965,14.605681,34.08537,5.947664c.041031-.017762.082127-.035655.123486-.060102.555295-.263806,1.110261-.520927,1.671521-.7711.348698-.148059.697726-.302804,1.046355-.450928,1.018633-.43238,2.055416-.830416,3.104524-1.20774.34719-.121449.694446-.242964,1.048256-.36402.108739-.034213.210792-.068753.31953-.102966.666721-.22435,1.339012-.428382,2.017596-.625401.366526-.107095.739672-.213732,1.112424-.313815.149052-.03867.298097-.077339.453766-.115681.589837-.161757,1.192327-.309489,1.794089-.44385l.385009-.079306c.77736-.171654,1.554064-.329938,2.336344-.467969.303665-.056956.613626-.10703.91697-.157366.606547-.100738,1.212442-.188171,1.824564-.268525.464257-.061675.934733-.116402,1.398592-.171392.450161-.049156.899994-.091562,1.35612-.126955.61068-.053744,1.22739-.093856,1.850326-.126889.301506-.017041.603011-.034147.910809-.044175.762809-.025496,1.525225-.044306,2.293671-.049484.153506.001639.307011.003277.460582.004916.907925.00911,1.821749.031853,2.740817.0816l.166483.009045c.919002.049746,1.829942.12584,2.733541.214781.15285.015009.305635.029887.45842.044896.763399.088088,1.519326.189154,2.274925.296839.304914.043258.602814.092742.900715.142291.615727.100082,1.22444.206588,1.825813.32594.449637.084418.89226.175193,1.334424.272654.455208.104801.917101.209931,1.371916.321417.59993.145962,1.192782.298281,1.784978.463971.296065.082779.598816.166018.894554.255482.762809.221663,1.517818.462922,2.272176.717487l.37419.1204c.583675.198592,1.166695.410489,1.735623.63497.150622.054924.294689.10952.438625.164051.359779.13967.719222.28609,1.072049.432052.653349.269115,1.299686.544588,1.938222.839657.104413.045748.20214.091103.306552.136851.338735.158546.670784.316829,1.009519.475441.995558.488025,1.983251.995647,2.949249,1.535581.330607.184894.660887.376407.99156.561235.530977.309358,1.054876.624876,1.578447.947146.03854.028773.077408.050926.116276.073014,16.809065,10.534744,27.904273,29.142085,28.119653,50.079113.009963,1.296287-.014158,2.60411-.085143,3.915997Z" style="fill: url(#Degradado_sin_nombre_593);"/>
        <path d="M119.405934,67.175648c-.035787.291924-.07164.583913-.114179.875443-.048634.404787-.110181.802233-.171793,1.199613-.043259.304901-.093139.609408-.149704.913588-.071509.457024-.156324.913261-.247431,1.362485-.03854.21832-.083373.429627-.128205.640934-.28997,1.406922-.625427,2.791363-1.013059,4.15293-.050797.197609-.108209.39489-.165304.585486-.065872.230183-.131417.453746-.203647.676917-.066266.236803-.138824.466658-.218002.69612-.104282.321614-.208498.643294-.319465.96458-.104216.321614-.215113.642835-.332705.963793-.221475.635887-.462549,1.263975-.710237,1.891735-.247759.627826-.508435,1.24818-.775394,1.861521-.114381.260988-.228363.51529-.342279.769593-.159732.358711-.325692.710408-.498336,1.061713-.143477.306146-.22803.648209-.3778.947342s-.259885.564316-.415947.856436c-.156455.29874-.32071.643294-.477165.942034-.950201,1.758554-1.867761,3.471426-2.985364,5.114037-.174283.257711-.37.507819-.550575.758582-.962589,1.370481-1.987708,2.747319-3.058774,4.025124-.20758.255941-.415684.497791-.636242.746325-.24966.293693-.502531.569756-.758549.856436-.184639.203704-.354002.402362-.538318.599446-.503903.547144-1.031149,1.11336-1.553868,1.639465-.289642.29153-.566109.572246-.868729.85637-.959115.936594-1.726709,1.564223-2.748813,2.430621-.273059.232346-.887016.696317-1.166368.92165-1.229815,1.00207-2.600616,1.908514-3.905283,2.812992-.22921.161233-.464646.315519-.700476.476358-.339653.228741-.685991.457089-1.031608.672132-.318219.20318-.636439.40636-.961016.602527-.179658.110504-.35263.221335-.524882.318861-.186671.116796-.379635.226644-.565978.336754-.103823.067836-.207383.128986-.317171.18319-.510064.292972-1.019875.579259-1.535909.858533-1.67211.904609-3.386104,1.720212-5.136081,2.460311-.355318.147731-.70395.295856-1.05894.436902-.593835.234968-1.187276.463316-1.786355.671346-.477362.181223-.960623.348748-1.443622.509588-.727743.241129-1.461384.468559-2.20099.682291-.366526.10703-.739672.213732-1.112424.313815-.149049.03867-.298097.077339-.454094.122367-.101725.027855-.203447.055711-.304783.076946-.108345.027593-.216691.055055-.331722.082255-.386124.099296-.771854.191972-1.157257.277963-.128336.026413-.256673.052892-.385337.085991-.777425.171654-1.553737.323318-2.33634.467904-.303341.050336-.613302.10041-.916642.150746-.606551.100738-1.212773.19479-1.824961.27521-.46386.05499-.934733.116337-1.398199.164772-.450161.049091-.899994.091496-1.35612.126889-.61068.05381-1.227717.100541-1.850654.133574-.301506.017041-.602683.027462-.910481.03749-.763137.032181-1.525618.050992-2.293671.049484-.153506-.001639-.307011-.003277-.460582-.004916-.908253-.002425-1.821749-.031853-2.741144-.074914l-.166483-.009045c-.918674-.056432-1.830008-.12584-2.733213-.221532-.15285-.014878-.305635-.029822-.45842-.044831-.763727-.081403-1.519719-.182469-2.274925-.296839-.304914-.043192-.603142-.086122-.901043-.135606-.615792-.100148-1.224109-.213208-1.825485-.332625-.449637-.084483-.892194-.175193-1.334424-.272589-.455601-.098182-.917101-.209996-1.372309-.314798-.599865-.146027-1.192389-.304966-1.78452-.470656-.296131-.082779-.598882-.166018-.894947-.248797-.762416-.228282-1.517884-.462922-2.272172-.717487-.124404-.046797-.249135-.086974-.373867-.127086-.373801-.127151-.74734-.260922-1.120421-.401313-.10474-.039063-.216166-.078519-.320907-.117582-.098514-.03205-.196565-.07072-.294689-.109455-.150228-.061544-.29423-.11614-.438232-.170671-.359775-.13967-.719222-.28609-1.072049-.432052-.712143-.292382-1.417011-.597676-2.114472-.916013-.521211-.241981-1.042095-.490515-1.54928-.74508-.520884-.248666-1.027741-.50985-1.534204-.77772-.337686-.178536-.668294-.36343-1.005587-.548651-.83012-.459055-1.652447-.937773-2.453403-1.441987-.26506-.161233-.52986-.329217-.787913-.496807-.296983-.189744-.593966-.379488-.890228-.582536-.825076-.552256-1.635995-1.117161-2.425612-1.707628-.982843-.721092-1.937304-1.474103-2.870005-2.259294-.210398-.185025-.427745-.363757-.638206-.548848-.331855-.285107-.66338-.5769-.987892-.874984-.280397-.248994-.560407-.504541-.833466-.766447-.298949-.276718-.591213-.552977-.876461-.835593-.247172-.247158-.500961-.49471-.741379-.741475-.26598-.268197-.532026-.536395-.790993-.810884-1.30198-1.366286-2.53402-2.788807-3.696261-4.267694-.230979-.299657-.462221-.592761-.692742-.899104-.230914-.299723-.455142-.599053-.672357-.904675-.223901-.306015-.441116-.611637-.658003-.923944-.217215-.305622-.434102-.617929-.637619-.929515-.210202-.311914-.420076-.630513-.623264-.948784-.819767-1.266662-1.591032-2.564064-2.313596-3.89889-.182149-.337147-.35794-.667216-.533403-1.004036-.126895-.247355-.253789-.494645-.380618-.741934-.681138-1.359339-1.313515-2.756102-1.891488-4.169971-.129975-.314208-.253592-.621468-.370196-.935086-.123615-.30726-.240221-.620747-.356891-.9343-.728201-1.969665-1.359987-3.994254-1.876348-6.052596-.093401-.372475-.186737-.744818-.273125-1.123519-.092287-.392399-.177626-.791091-.262834-1.189782-.074131-.35799-.147932-.722665-.214987-1.086947-.072689-.3846-.145378-.769265-.211382-1.153537-.242515-1.442446-.437312-2.902326-.577711-4.379312-.021826-.214912-.043587-.429824-.058269-.651028-.025169-.27521-.044046-.543408-.062595-.818225-.023334-.308506-.046733-.617011-.056434-.931416-.016845-.181289-.026742-.368804-.030019-.555992-.03572-.696579-.051518-1.392044-.060236-2.093801-.009897-1.296287.013764-2.597359.084817-3.909311.071048-1.311886.188373-2.614662.338211-3.902298,2.971925-18.740653,19.698011-32.575562,39.064633-31.526827,8.371367.453288,15.954753,3.615684,21.94357,8.595228-9.546845,6.329052-15.91248,16.976331-16.579266,29.289751-.666852,12.313354,4.797871,23.344971,13.605372,30.667835,5.982198,4.979217,13.282896,8.319166,21.654264,8.772454,19.366615,1.048736,36.093094-12.792858,39.064955-31.533512Z" style="fill: url(#Degradado_sin_nombre_458);"/>
        <path d="M99.654568,104.996461c-1.235517,1.008034-2.508788,1.967043-3.819551,2.87683-.230258.162282-.466809.317419-.703753.479242-.34116.230118-.689202.459907-1.036388.676196-.319732.204425-.639459.408785-.965543.606131-.18051.111159-.354335.222711-.527373.320762-.187523.117517-.381405.227955-.5686.338786-.104347.068229-.208296.129773-.318613.184238-.512494.294742-1.02466.582798-1.543184.863711-1.67991.910049-3.4019,1.730568-5.160071,2.475124-.356956.148649-.707227.297691-1.063856.439589-.596588.236344-1.192782.466134-1.794679.675344-.47959.182338-.965141.350911-1.450307.512734-.731151.242636-1.468266.471377-2.211281.686486-.36823.107685-.74308.215043-1.117668.315715-.149639.038932-.299408.077864-.456191.123088-.10218.028052-.204303.056104-.306159.077405-.108804.02779-.217739.055448-.333295.082779-.387893.099951-.775459.193152-1.162566.279667-.128992.026676-.257918.05322-.387238.086581-.780965.172637-1.560947.325284-2.347221.470787-.304717.050664-.61612.101066-.920837.151664-.609369.101393-1.21841.196101-1.833416.27698-.466023.055383-.939124.117123-1.404754.165821-.452258.049419-.904119.092086-1.362412.127807-.613564.054072-1.233416.101131-1.859241.134361-.302944.017238-.605502.02779-.914742.037883-.766676.032378-1.532631.051385-2.304285.049877-.15423-.001639-.308457-.003277-.462745-.004916-.912451-.00236-1.830142-.031919-2.753864-.075177l-.167204-.009045c-.922935-.056759-1.838528-.126496-2.745863-.222646-.153571-.015009-.307077-.030018-.460582-.045093-.767266-.081796-1.526794-.183386-2.285478-.298412-.30629-.043454-.605957-.086581-.905238-.136393-.618611-.100672-1.229749-.214322-1.833875-.334395-.451734-.084942-.896389-.176177-1.340651-.274162-.457633-.098641-.921296-.211176-1.378601-.316502-.602683-.146814-1.197895-.306736-1.792778-.473343-.297507-.083238-.601635-.166935-.899142-.250173-.76589-.229593-1.524832-.465544-2.282594-.721551-.124994-.047125-.25025-.087433-.375637-.127872-.375505-.127807-.750749-.262364-1.125599-.403541-.105199-.039325-.21715-.078978-.322349-.118303-.098972-.032181-.197486-.071113-.296065-.110045-.150949-.061872-.295607-.116796-.440264-.171654-.361479-.140522-.722565-.287663-1.076965-.434543-.71542-.294021-1.423565-.601085-2.124238-.921257-.523636-.243357-1.04688-.493334-1.556424-.74934-.523309-.250108-1.03246-.5128-1.541283-.782177-.339194-.179585-.671374-.365527-1.010175-.551863-.833925-.461677-1.66005-.943148-2.464677-1.450245-.266308-.162216-.532285-.331183-.791583-.499691-.298359-.190924-.596653-.381716-.894289-.585944-.828881-.555467-1.643536-1.123585-2.436758-1.71746-.987365-.725287-1.946215-1.482689-2.883114-2.272403-.211382-.186139-.429776-.36592-.641158-.552059-.333426-.286746-.666393-.580242-.992412-.880096-.281711-.250436-.563029-.507491-.837268-.770904-.300391-.278291-.593966-.556188-.880527-.840444-.248283-.248535-.503187-.497528-.744719-.745736-.267226-.26977-.534451-.539541-.794664-.815669-1.307879-1.374151-2.545559-2.804996-3.713172-4.292535-.231963-.301427-.464253-.596169-.695822-.904347-.231963-.301427-.45724-.602527-.675438-.909984-.224884-.307785-.443082-.615176-.660953-.929318-.218264-.307391-.436066-.621468-.640566-.934889-.211122-.313815-.421979-.634314-.626085-.95429-.823438-1.274069-1.598242-2.579139-2.324018-3.921764-.183001-.339114-.359578-.671149-.535893-1.009869-.127419-.248797-.254838-.497528-.382257-.746325-.684287-1.367269-1.31948-2.772225-1.900009-4.194353-.130565-.316109-.254772-.625139-.371835-.940526-.124207-.309096-.241333-.624483-.358464-.939805-.731479-1.981266-1.366017-4.017652-1.884737-6.08812-.093729-.374637-.187523-.749209-.274239-1.130139-.092678-.394693-.178347-.795678-.264014-1.196729-.074456-.360087-.148522-.72686-.215904-1.09337-.073017-.386828-.145968-.773787-.212299-1.160288-.243499-1.450901-.439084-2.919432-.58007-4.405005-.021892-.216223-.043718-.43238-.058529-.654895-.025237-.276783-.044179-.546554-.062794-.823075-.023465-.310275-.046864-.620616-.056565-.936856-.016974-.182338-.026939-.370967-.030151-.559269-.035918-.700643-.051649-1.400237-.060367-2.106123-.009963-1.30389.013961-2.612631.085405-3.932316.071509-1.31962.189424-2.630065.340114-3.925304,1.327867-8.380513,7.302724-16.879592,13.111294-22.42804C7.984625,33.984123,1.878286,43.492284.427651,52.647371c-.150687,1.295239-.268602,2.605683-.340046,3.925304-.071509,1.319686-.095368,2.628426-.08547,3.932316.008717.705886.024514,1.40548.060369,2.106123.003277.188302.013172.376931.030151.559269.009698.31624.033163.62658.056563.936856.01868.276521.037557.546292.062857.823075.014748.222515.036639.438672.058466.654895.140987,1.485572.336572,2.954104.58007,4.405005.066331.3865.13935.77346.212365,1.160288.067314.36651.14138.733283.215839,1.09337.085667.401051.171334.802036.264014,1.196729.086781.380929.18051.755501.274307,1.130139.518653,2.070468,1.153191,4.106855,1.884735,6.08812.117128.315322.234191.63071.358398.939805.117131.315388.241336.624418.371835.940526.580595,1.422128,1.215788,2.827084,1.900009,4.194353.127419.248797.254838.497528.382322.746325.17625.33872.352893.670756.535828,1.009869.725776,1.342626,1.50058,2.647696,2.324086,3.921764.204104.319975.414898.640475.62608.95429.204434.313421.422304.627498.640503.934889.217871.314142.436069.621534.660953.929318.218198.307457.443475.608556.675438.909984.231569.308178.463862.60292.69589.904347,1.167545,1.487539,2.405225,2.918384,3.713106,4.292535.260212.276128.527435.545898.794661.815669.241532.248207.496501.497201.744719.745736.286627.284255.580136.562153.88053.840444.274236.263413.555554.520468.837265.770904.326019.299854.659052.593351.992478.880096.211319.186139.429711.36592.641093.552059.936961.789714,1.895752,1.547116,2.883114,2.272403.793222.593875,1.607877,1.161992,2.436755,1.71746.297638.204229.595932.395021.894292.585944.259295.168508.525275.337475.791583.499691.804627.507098,1.630752.988568,2.464677,1.450245.338866.186336.670981.372278,1.01024.551863.508761.269377,1.017909.532069,1.541218.782177.509544.256007,1.032856.505983,1.55649.74934.700673.320172,1.408752.627236,2.124238.921257.3544.146879.715486.294021,1.076899.434543.144657.054859.28938.109783.440329.171654.098582.038932.197027.077864.296.110045.105199.039325.21715.078978.322414.118303.374785.141177.750028.275735,1.125599.403541.125321.040439.250643.080748.375571.127872.757762.256007,1.516704.491957,2.282662.721551.297438.083238.601631.166935.899073.250173.594884.166607,1.190095.32653,1.792778.473343.457305.105326.920972.217861,1.378667.316502.4442.097985.888851.189219,1.340585.274162.604125.120073,1.21533.233722,1.83394.334395.299277.049812.598882.092938.905172.136393.758745.115026,1.518212.216616,2.285478.298412.153506.015075.30708.030084.460582.045093.907335.09615,1.822929.165887,2.745863.222646l.16727.009045c.923656.043258,1.84135.072817,2.753794.075177.154292.001639.308584.003343.462745.004916.771658.001507,1.537617-.0175,2.304354-.049877.30924-.010093.611794-.020646.914676-.037883.625821-.03323,1.245742-.080289,1.85931-.134361.458219-.03572.91015-.078388,1.362342-.127807.465629-.048698.938731-.110438,1.404754-.165821.61501-.080879,1.224047-.175587,1.833416-.27698.304717-.050598.61619-.101.920903-.151664.786208-.145503,1.56619-.29815,2.347155-.470787.12932-.033361.258246-.059905.387238-.086581.387172-.086515.774738-.179716,1.162566-.279667.115555-.027331.224491-.05499.333295-.082779.101856-.021301.203975-.049353.306163-.077405.156779-.045224.306548-.084156.456252-.123088.374522-.100672.749372-.20803,1.117602-.315715.743015-.215108,1.48013-.44385,2.211281-.686486.485227-.161823.970787-.330397,1.450307-.512734.601897-.20921,1.198091-.438934,1.794679-.675344.356629-.141898.706965-.29094,1.063921-.439589,1.758105-.744556,3.480095-1.565075,5.160071-2.475124.518458-.280913,1.030625-.568969,1.543118-.863711.110312-.054465.214331-.116009.318613-.184238.187196-.110831.381142-.221269.5686-.338786.173104-.098051.346928-.209603.527377-.320762.32608-.197347.645807-.401706.9656-.606131.34719-.216288.695167-.446078,1.036393-.676196.236944-.161823.473495-.316961.703692-.479242,1.310758-.909787,2.584029-1.868796,3.819612-2.876764.280662-.226775.561718-.460104.836088-.693826.720992-.611899,1.423172-1.24464,2.114799-1.889245-.153702.132788-.303603.269901-.458546.401379-.274375.233722-.55543.467051-.836158.693761Z" style="fill: url(#Degradado_sin_nombre_528);"/>
        <path d="M76.53119,59.371772c.666852-12.313354-4.681857-23.563291-13.482738-30.885827-5.988818-4.979545-13.572207-8.141941-21.943574-8.595228-10.756997-.582536-20.644019,3.629644-27.867306,10.520914,7.051821-5.97801,16.257572-9.581306,26.218857-9.041896,8.371302.453288,15.95469,3.615749,21.943574,8.595294,8.800881,7.322536,14.149524,18.572473,13.482738,30.885827-.539236,9.957058-4.916113,18.791186-11.615042,25.155303,7.625141-6.436672,12.681192-15.881585,13.263491-26.634387Z" style="fill: url(#Degradado_sin_nombre_459);"/>
        <path d="M58.556203,89.789893c2.298462,1.856018,4.83078,3.394379,7.483398,4.645416,2.642395,1.272217,5.415985,2.257416,8.26239,2.902557,5.68927,1.299927,11.658112,1.246948,17.292328-.22522.705109-.17627,1.401245-.389771,2.102814-.582397.697266-.207642,1.380219-.462921,2.071533-.691772,1.37204-.531616,2.718018-1.017761,3.970612-1.7453,2.542999-1.409332,4.896576-3.164001,7.106628-5.070221,2.200165-1.9216,4.215881-4.067627,5.969757-6.41861,1.803223-2.318542,3.305695-4.862518,4.615601-7.512146-1.057861,2.76239-2.471039,5.392395-4.132446,7.860413-1.687164,2.45163-3.655243,4.712891-5.828064,6.760651-2.168671,2.056366-4.601196,3.825897-7.195953,5.333099-1.298218.775116-2.735107,1.319885-4.107666,1.868439-1.404083.518616-2.828918.986542-4.283936,1.350128-5.819427,1.419373-12.006775,1.492828-17.796722-.046356-5.770477-1.535309-11.208282-4.378876-15.530273-8.42868Z" style="fill: url(#Degradado_sin_nombre_458-2);"/>
      </g>
      <g>
        <path d="M156.276998,18.649024v19.5c0,2.267578-.167969,4.517578-.5,6.75-.334961,2.234375-.867188,4.416992-1.600586,6.549805.533203,2.067383,1.015625,4.18457,1.450195,6.350586.432617,2.166992.650391,4.184082.650391,6.050293v23.799805h-15.200195V18.649024h15.200195ZM164.076803,46.448829v10.600586h-12.400391v-10.600586h12.400391ZM195.776998,18.649024l-18,27.799805c-.734375,1.200195-1.53418,2.234375-2.400391,3.100586-.867188.867188-1.734375,1.599609-2.599609,2.199219v.300781c.932617.53418,1.932617,1.333984,3,2.399414,1.06543,1.067383,1.932617,2.200195,2.599609,3.400391l18.600586,29.800293h-17.100586l-21.299805-36.100098,20.700195-32.900391h16.5Z" style="fill: #128fb5;"/>
        <path d="M242.775045,57.248634l-.099609,8.30127-22,.099609c-1.799805,0-3.084961.43457-3.850586,1.299805-.766602.867188-1.149414,2.03418-1.149414,3.5v2.400391c0,1.666992.46582,2.950195,1.399414,3.849609.933594.900391,2.433594,1.350586,4.5,1.350586,1.733398,0,3.616211-.366211,5.650391-1.100586,2.033203-.732422,4.049805-1.765625,6.049805-3.099609,2-1.333008,3.765625-2.900391,5.299805-4.700195v6.400391c-.599609,1-1.484375,2.25-2.649414,3.75-1.166992,1.5-2.650391,2.966797-4.450195,4.399414-1.799805,1.43457-3.900391,2.650391-6.299805,3.650391-2.400391,1-5.134766,1.5-8.200195,1.5-3,0-5.700195-.53418-8.099609-1.600586-2.400391-1.06543-4.300781-2.632812-5.700195-4.699219-1.400391-2.066406-2.100586-4.632812-2.100586-7.700195v-5.100586c0-3.932617,1.333008-7,4-9.199707,2.666016-2.200195,6.333008-3.300781,11-3.300781h26.700195ZM229.57485,36.948829c4.132812,0,7.632812.549805,10.5,1.650391,2.866211,1.099609,5.050781,2.966797,6.550781,5.599609,1.5,2.634766,2.25,6.25,2.25,10.850586v32.600098h-11.800781l-2.099609-10.700195-1-1.5v-20.500488c0-2.333008-.549805-4.032227-1.650391-5.099609-1.099609-1.06543-3.183594-1.600586-6.25-1.600586-2.53418,0-5.699219.084961-9.5.25-3.799805.167969-7.699219.384766-11.699219.650391l-1.400391-9.799805c2.400391-.46582,5.166016-.866211,8.299805-1.200195,3.132812-.333008,6.265625-.615234,9.400391-.850098,3.132812-.23291,5.932617-.350098,8.399414-.350098Z" style="fill: #128fb5;"/>
        <path d="M272.274068,38.248634l1.5,9.800781,1.5,1.299805v38.300293h-14.799805v-49.400879h11.799805ZM292.274068,36.948829c4.400391,0,7.75,1.150391,10.049805,3.450195,2.300781,2.299805,3.450195,5.716797,3.450195,10.25v37.000488h-14.200195v-32.400879c0-2.132812-.449219-3.632812-1.349609-4.5-.900391-.865234-2.28418-1.299805-4.150391-1.299805-1.133789,0-2.25.150391-3.349609.450195s-2.367188.817383-3.799805,1.549805c-1.43457.734375-3.18457,1.767578-5.25,3.100586l-.900391-8.200195c3.265625-3.132812,6.432617-5.483398,9.5-7.049805,3.06543-1.566406,6.400391-2.350586,10-2.350586ZM323.073873,36.948829c4.46582,0,7.866211,1.166992,10.200195,3.5,2.333008,2.334961,3.5,5.734375,3.5,10.200195v37.000488h-14.700195v-32.400879c0-2.06543-.399414-3.549805-1.199219-4.449219-.800781-.900391-2.200195-1.350586-4.200195-1.350586-1.200195,0-2.334961.166992-3.400391.5-1.067383.334961-2.299805.867188-3.700195,1.600586-1.399414.734375-3.099609,1.734375-5.099609,3l-.799805-8.200195c3.200195-3.132812,6.349609-5.483398,9.450195-7.049805,3.099609-1.566406,6.415039-2.350586,9.949219-2.350586Z" style="fill: #128fb5;"/>
        <path d="M359.57485,16.448829c2.932617,0,4.400391,1.5,4.400391,4.5v5.300293c0,3-1.467773,4.5-4.400391,4.5h-6.400391c-2.933594,0-4.399414-1.5-4.399414-4.5v-5.300293c0-3,1.46582-4.5,4.399414-4.5h6.400391ZM363.674459,38.248634v49.400879h-14.699219v-49.400879h14.699219Z" style="fill: #128fb5;"/>
      </g>
    </g>
  </g>
</svg>